<svg version="1.1" xmlns="http://www.w3.org/2000/svg" viewBox="0 0 2381.967313905581 4745.871874555086" width="7145.901941716742" height="14237.615623665257">
  <!-- svg-source:excalidraw -->
  
  <defs>
    <style class="style-fonts">
      @font-face {
        font-family: "Virgil";
        src: url("https://excalidraw.com/Virgil.woff2");
      }
      @font-face {
        font-family: "Cascadia";
        src: url("https://excalidraw.com/Cascadia.woff2");
      }
      @font-face {
        font-family: "Assistant";
        src: url("https://excalidraw.com/Assistant-Regular.woff2");
      }
    </style>
    
  </defs>
  <rect x="0" y="0" width="2381.967313905581" height="4745.871874555086" fill="#ffffff"></rect><g stroke-linecap="round" transform="translate(1471.077025652076 10) rotate(0 123.74999999999999 30.75)"><path d="M15.37 0 C88.97 -3.45, 160.81 -2.8, 232.12 0 M15.37 0 C66.52 0.49, 115.94 -0.43, 232.12 0 M232.12 0 C244.03 0.26, 245.88 4.5, 247.5 15.37 M232.12 0 C242.91 0.26, 247.51 3.93, 247.5 15.37 M247.5 15.37 C248.05 23.81, 247.72 33.47, 247.5 46.12 M247.5 15.37 C247.48 24.35, 247.28 34.04, 247.5 46.12 M247.5 46.12 C247.29 56.07, 243.17 62.74, 232.12 61.5 M247.5 46.12 C249.07 54.46, 243.06 62.46, 232.12 61.5 M232.12 61.5 C150.81 63.05, 71.06 60.08, 15.37 61.5 M232.12 61.5 C172.65 60.39, 114.57 60.62, 15.37 61.5 M15.37 61.5 C5.11 60.87, 0.62 55.91, 0 46.12 M15.37 61.5 C3.91 63.1, 0.1 54.54, 0 46.12 M0 46.12 C1.79 36.64, -0.24 28.31, 0 15.37 M0 46.12 C0.01 36.62, -1.11 24.81, 0 15.37 M0 15.37 C-0.78 3.55, 5.35 1.43, 15.37 0 M0 15.37 C0.75 5, 5.92 -1.34, 15.37 0" stroke="#1e1e1e" stroke-width="2" fill="none"></path></g><g transform="translate(1556.067061662818 28.25) rotate(0 38.75996398925781 12.5)"><text x="38.75996398925781" y="17.52" font-family="Virgil, Segoe UI Emoji" font-size="20px" fill="#1e1e1e" text-anchor="middle" style="white-space: pre;" direction="ltr" dominant-baseline="alphabetic">Program</text></g><g stroke-linecap="round"><g transform="translate(1591.8029722070041 72.5) rotate(0 -1.1129732774640644 29.75)"><path d="M0.88 0.25 C0.27 9.94, -2.67 49, -3.16 58.94 M-0.11 -0.66 C-0.4 9.12, -0.5 50.45, -0.93 60.18" stroke="#1e1e1e" stroke-width="2" fill="none"></path></g><g transform="translate(1591.8029722070041 72.5) rotate(0 -1.1129732774640644 29.75)"><path d="M-9.01 36.52 C-5.65 43.06, -4.23 53.03, -0.93 60.18 M-9.01 36.52 C-6.29 43.75, -3.13 53.05, -0.93 60.18" stroke="#1e1e1e" stroke-width="2" fill="none"></path></g><g transform="translate(1591.8029722070041 72.5) rotate(0 -1.1129732774640644 29.75)"><path d="M8.09 36.87 C5.56 43.41, 1.1 53.27, -0.93 60.18 M8.09 36.87 C5.16 43.94, 2.66 53.12, -0.93 60.18" stroke="#1e1e1e" stroke-width="2" fill="none"></path></g></g><mask></mask><g stroke-linecap="round" transform="translate(1472.077025652076 135.5) rotate(0 121 30.5)"><path d="M15.25 0 C96.29 0.31, 181.81 2.14, 226.75 0 M15.25 0 C96.29 -0.52, 177.75 0.24, 226.75 0 M226.75 0 C236.66 -1.16, 240.76 5.85, 242 15.25 M226.75 0 C235.28 1.46, 241 6.83, 242 15.25 M242 15.25 C241.3 22.23, 241.23 28.21, 242 45.75 M242 15.25 C242.59 26.37, 241.09 36.76, 242 45.75 M242 45.75 C240.56 53.94, 236.33 60.34, 226.75 61 M242 45.75 C243.14 56.38, 238.96 60.56, 226.75 61 M226.75 61 C164.16 61.81, 99.88 63.16, 15.25 61 M226.75 61 C183.21 59.73, 138.38 59.42, 15.25 61 M15.25 61 C3.97 61.21, 0.97 57.59, 0 45.75 M15.25 61 C6.96 60.28, -0.14 53.69, 0 45.75 M0 45.75 C0.73 37.65, 0.31 30.86, 0 15.25 M0 45.75 C-0.43 35.13, -0.84 24.13, 0 15.25 M0 15.25 C0.42 5.85, 6.12 0.33, 15.25 0 M0 15.25 C-0.76 6.97, 3.67 -1.3, 15.25 0" stroke="#1e1e1e" stroke-width="2" fill="none"></path></g><g transform="translate(1526.867095232154 153.5) rotate(0 66.20993041992188 12.5)"><text x="66.20993041992188" y="17.52" font-family="Virgil, Segoe UI Emoji" font-size="20px" fill="#1e1e1e" text-anchor="middle" style="white-space: pre;" direction="ltr" dominant-baseline="alphabetic">OrdersService</text></g><g mask="url(#mask-TP3XTPHWJcdMQSDFejvX3)" stroke-linecap="round"><g transform="translate(1588.577025652076 198.5) rotate(0 -0.25 51.5)"><path d="M0.44 1.17 C0.55 18.04, -0.18 85.47, -0.5 102.27 M-0.79 0.73 C-0.73 18.26, -1.73 86.42, -1.45 103.43" stroke="#1e1e1e" stroke-width="2" fill="none"></path></g><g transform="translate(1588.577025652076 198.5) rotate(0 -0.25 51.5)"><path d="M-9.97 79.93 C-6.08 84.69, -7.5 87.85, -1.45 103.43 M-9.97 79.93 C-7.6 85.54, -6.65 90.15, -1.45 103.43" stroke="#1e1e1e" stroke-width="2" fill="none"></path></g><g transform="translate(1588.577025652076 198.5) rotate(0 -0.25 51.5)"><path d="M7.13 79.95 C7.53 84.77, 2.63 87.92, -1.45 103.43 M7.13 79.95 C5.79 85.64, 3.03 90.25, -1.45 103.43" stroke="#1e1e1e" stroke-width="2" fill="none"></path></g></g><mask id="mask-TP3XTPHWJcdMQSDFejvX3"><rect x="0" y="0" fill="#fff" width="1689.077025652076" height="401.5"></rect><rect x="1549.6370689870369" y="237.5" fill="#000" width="77.37991333007812" height="25" opacity="1"></rect></mask><g transform="translate(1549.6370689870369 237.5) rotate(0 38.41840877046808 13.080990212913605)"><text x="38.68995666503906" y="17.52" font-family="Virgil, Segoe UI Emoji" font-size="20px" fill="#1e1e1e" text-anchor="middle" style="white-space: pre;" direction="ltr" dominant-baseline="alphabetic">.ingest()</text></g><g stroke-linecap="round" transform="translate(1440.077025652076 306.5) rotate(0 166.25 30.5)"><path d="M15.25 0 C81.39 1.71, 148.46 0.69, 317.25 0 M15.25 0 C102.69 -0.47, 190.97 -0.83, 317.25 0 M317.25 0 C328.77 0.15, 330.56 3.93, 332.5 15.25 M317.25 0 C329.17 0.6, 332.07 6.64, 332.5 15.25 M332.5 15.25 C334.02 23.95, 331.24 34.08, 332.5 45.75 M332.5 15.25 C333.09 23.26, 331.96 32.86, 332.5 45.75 M332.5 45.75 C334.17 57.7, 328.22 62.36, 317.25 61 M332.5 45.75 C330.21 57.45, 326.18 59.79, 317.25 61 M317.25 61 C219.48 62.16, 119.68 62.34, 15.25 61 M317.25 61 C244.38 62.18, 172.59 62.92, 15.25 61 M15.25 61 C3.97 62.92, -1.44 57.56, 0 45.75 M15.25 61 C3.49 59.2, -1.84 57.88, 0 45.75 M0 45.75 C0.09 40.19, 0.93 31.88, 0 15.25 M0 45.75 C-0.39 34.88, -0.34 24.76, 0 15.25 M0 15.25 C-0.96 3.1, 6.03 -0.36, 15.25 0 M0 15.25 C2.15 7.36, 5.98 -0.38, 15.25 0" stroke="#1e1e1e" stroke-width="2" fill="none"></path></g><g transform="translate(1489.3971474172126 324.5) rotate(0 116.92987823486328 12.5)"><text x="116.92987823486328" y="17.52" font-family="Virgil, Segoe UI Emoji" font-size="20px" fill="#1e1e1e" text-anchor="middle" style="white-space: pre;" direction="ltr" dominant-baseline="alphabetic">OrdersTotalsRepository</text></g><g stroke-linecap="round"><g transform="translate(1584.1325812076316 368.8333333333333) rotate(0 -0.5555555555554861 40.2777777777778)"><path d="M0.51 0.43 C0.06 13.89, -1.59 67.91, -1.94 81.09 M-0.68 -0.39 C-0.82 12.68, 0.65 65.8, 0.33 79.25" stroke="#1e1e1e" stroke-width="2" fill="none"></path></g><g transform="translate(1584.1325812076316 368.8333333333333) rotate(0 -0.5555555555554861 40.2777777777778)"><path d="M-8.34 55.8 C-4.4 62.89, -1.08 72.01, 0.33 79.25 M-8.34 55.8 C-5.46 60.4, -5.35 65.23, 0.33 79.25" stroke="#1e1e1e" stroke-width="2" fill="none"></path></g><g transform="translate(1584.1325812076316 368.8333333333333) rotate(0 -0.5555555555554861 40.2777777777778)"><path d="M8.76 55.72 C6.49 62.91, 3.61 72.06, 0.33 79.25 M8.76 55.72 C7.95 60.34, 4.37 65.19, 0.33 79.25" stroke="#1e1e1e" stroke-width="2" fill="none"></path></g></g><mask></mask><g stroke-linecap="round" transform="translate(1440.799247874298 448.8333333333335) rotate(0 140.27777777777783 110)"><path d="M176.25 27.75 C200.95 45.1, 219.74 65.91, 245.31 83.25 M176.25 27.75 C199.4 47.32, 224.62 67.04, 245.31 83.25 M245.31 83.25 C279.62 110.5, 280.58 110, 245.31 138.75 M245.31 83.25 C281.92 109.44, 281.39 111.45, 245.31 138.75 M245.31 138.75 C219.31 159.3, 192.44 177.91, 176.25 192.25 M245.31 138.75 C218.85 159.74, 193.5 179.08, 176.25 192.25 M176.25 192.25 C139.42 220.93, 140.34 218.08, 105.75 192.25 M176.25 192.25 C142.2 221.7, 142.63 217.7, 105.75 192.25 M105.75 192.25 C82.68 175.56, 61.49 157.24, 35.25 138.75 M105.75 192.25 C82.12 173.75, 57.68 154.4, 35.25 138.75 M35.25 138.75 C1.53 112.36, 0.89 109.13, 35.25 83.25 M35.25 138.75 C2.03 110.18, 0.93 109.4, 35.25 83.25 M35.25 83.25 C57.92 65.95, 75.65 50.48, 105.75 27.75 M35.25 83.25 C57.52 67.36, 78.69 48.92, 105.75 27.75 M105.75 27.75 C142.43 1.55, 142.84 1.15, 176.25 27.75 M105.75 27.75 C141.39 -1.53, 142.62 -1.48, 176.25 27.75" stroke="#1e1e1e" stroke-width="2" fill="none"></path></g><g transform="translate(1518.1081807084997 533.8333333333335) rotate(0 62.8299560546875 25)"><text x="62.8299560546875" y="17.52" font-family="Virgil, Segoe UI Emoji" font-size="20px" fill="#1e1e1e" text-anchor="middle" style="white-space: pre;" direction="ltr" dominant-baseline="alphabetic">We have </text><text x="62.8299560546875" y="42.519999999999996" font-family="Virgil, Segoe UI Emoji" font-size="20px" fill="#1e1e1e" text-anchor="middle" style="white-space: pre;" direction="ltr" dominant-baseline="alphabetic">data saved?</text></g><g mask="url(#mask-uyMYIwMOsbfEUpJwV-QjF)" stroke-linecap="round"><g transform="translate(1655.7661802512819 615.3317851586372) rotate(0 73.50865114376197 37.827162976236934)"><path d="M0.86 0.99 C25.15 13.81, 121.62 63.48, 145.95 75.82 M-0.15 0.46 C24.49 13.6, 123.74 64.85, 148.1 77.45" stroke="#1e1e1e" stroke-width="2" fill="none"></path></g><g transform="translate(1655.7661802512819 615.3317851586372) rotate(0 73.50865114376197 37.827162976236934)"><path d="M123.31 74.25 C132.79 73.31, 139.28 75.85, 148.1 77.45 M123.31 74.25 C130.35 75.29, 135.16 75.82, 148.1 77.45" stroke="#1e1e1e" stroke-width="2" fill="none"></path></g><g transform="translate(1655.7661802512819 615.3317851586372) rotate(0 73.50865114376197 37.827162976236934)"><path d="M131.16 59.06 C138.01 62.99, 142.01 70.35, 148.1 77.45 M131.16 59.06 C136.34 63.88, 139.19 68.21, 148.1 77.45" stroke="#1e1e1e" stroke-width="2" fill="none"></path></g></g><mask id="mask-uyMYIwMOsbfEUpJwV-QjF"><rect x="0" y="0" fill="#fff" width="1902.7834825388059" height="790.9861111111111"></rect><rect x="1711.2948432968992" y="640.6589481348742" fill="#000" width="35.95997619628906" height="25" opacity="1"></rect></mask><g transform="translate(1711.2948432968992 640.658948134874) rotate(0 18.45029693789781 13.628003730103373)"><text x="17.97998809814453" y="17.52" font-family="Virgil, Segoe UI Emoji" font-size="20px" fill="#1e1e1e" text-anchor="middle" style="white-space: pre;" direction="ltr" dominant-baseline="alphabetic">YES</text></g><g stroke-linecap="round" transform="translate(1615.7298034298537 693.3333333333333) rotate(0 166.25 30.5)"><path d="M15.25 0 C115 -0.35, 212.33 0.96, 317.25 0 M15.25 0 C82.94 0.27, 150.32 -0.22, 317.25 0 M317.25 0 C328.2 0.68, 332.81 3.85, 332.5 15.25 M317.25 0 C329.09 -1.12, 334.63 4.99, 332.5 15.25 M332.5 15.25 C333.32 23.57, 332.46 29.47, 332.5 45.75 M332.5 15.25 C331.37 22.93, 332.2 30.41, 332.5 45.75 M332.5 45.75 C333.37 55.28, 325.51 59.46, 317.25 61 M332.5 45.75 C334.13 57.43, 328.6 62.92, 317.25 61 M317.25 61 C212.65 59.39, 110.62 57.58, 15.25 61 M317.25 61 C251.08 61.25, 185.44 59.98, 15.25 61 M15.25 61 C6.91 61.84, 0.33 56.42, 0 45.75 M15.25 61 C6.63 59.69, 1.82 58.2, 0 45.75 M0 45.75 C0.17 36.46, -0.63 29.51, 0 15.25 M0 45.75 C0.93 35.33, 0.87 24.72, 0 15.25 M0 15.25 C-0.57 6.49, 3.78 0.41, 15.25 0 M0 15.25 C0.17 5.14, 3.85 2.1, 15.25 0" stroke="#1e1e1e" stroke-width="2" fill="none"></path></g><g transform="translate(1715.609861718428 711.3333333333333) rotate(0 66.36994171142578 12.5)"><text x="66.36994171142578" y="17.52" font-family="Virgil, Segoe UI Emoji" font-size="20px" fill="#1e1e1e" text-anchor="middle" style="white-space: pre;" direction="ltr" dominant-baseline="alphabetic">.getLastPage</text></g><g mask="url(#mask-9Qxi9iCeSCj5u3SQ5i_bk)" stroke-linecap="round"><g transform="translate(1505.879125152777 614.4365606508413) rotate(0 -64.0113728729651 41.81644189680151)"><path d="M-0.36 0.25 C-21.75 14.14, -107.72 68.94, -129.14 82.83 M1.66 -0.66 C-19.31 13.4, -105.67 69.69, -127.02 83.94" stroke="#1e1e1e" stroke-width="2" fill="none"></path></g><g transform="translate(1505.879125152777 614.4365606508413) rotate(0 -64.0113728729651 41.81644189680151)"><path d="M-112.11 63.88 C-115.26 66.66, -120.51 71.8, -127.02 83.94 M-112.11 63.88 C-115.97 70.68, -121.46 76.08, -127.02 83.94" stroke="#1e1e1e" stroke-width="2" fill="none"></path></g><g transform="translate(1505.879125152777 614.4365606508413) rotate(0 -64.0113728729651 41.81644189680151)"><path d="M-102.7 78.16 C-107.99 77.57, -115.45 79.37, -127.02 83.94 M-102.7 78.16 C-109.3 80.85, -117.56 82.06, -127.02 83.94" stroke="#1e1e1e" stroke-width="2" fill="none"></path></g></g><mask id="mask-9Qxi9iCeSCj5u3SQ5i_bk"><rect x="0" y="0" fill="#fff" width="1733.9018708987073" height="798.0694444444443"></rect><rect x="1428.1677629609642" y="643.7530025476428" fill="#000" width="27.399978637695312" height="25" opacity="1"></rect></mask><g transform="translate(1428.1677629609644 643.7530025476431) rotate(0 13.968686394551767 12.323778859730808)"><text x="13.699989318847656" y="17.52" font-family="Virgil, Segoe UI Emoji" font-size="20px" fill="#1e1e1e" text-anchor="middle" style="white-space: pre;" direction="ltr" dominant-baseline="alphabetic">NO</text></g><g stroke-linecap="round" transform="translate(1211.1464700965203 704.4444444444443) rotate(0 166.25 30.5)"><path d="M15.25 0 C103.82 2.18, 189.89 2.35, 317.25 0 M15.25 0 C99.21 -2.66, 184.19 -2.02, 317.25 0 M317.25 0 C328.51 -1.78, 331.82 3.83, 332.5 15.25 M317.25 0 C327.21 2.14, 332.52 5.06, 332.5 15.25 M332.5 15.25 C332.91 20.37, 333.97 26.51, 332.5 45.75 M332.5 15.25 C332 23.73, 333.28 33.52, 332.5 45.75 M332.5 45.75 C333.13 54.17, 325.92 62.87, 317.25 61 M332.5 45.75 C332.96 54.66, 325.26 59.9, 317.25 61 M317.25 61 C233.35 63.13, 147.33 62.75, 15.25 61 M317.25 61 C220.75 62.34, 123.8 62.25, 15.25 61 M15.25 61 C5.12 62.42, -1.32 57.34, 0 45.75 M15.25 61 C3.7 60.05, -0.38 57.7, 0 45.75 M0 45.75 C1.47 32.61, -1.42 23.25, 0 15.25 M0 45.75 C0.51 36.88, -0.32 26.18, 0 15.25 M0 15.25 C-0.69 3.24, 6.23 -1.09, 15.25 0 M0 15.25 C-0.77 5.73, 4.69 1.28, 15.25 0" stroke="#1e1e1e" stroke-width="2" fill="none"></path></g><g transform="translate(1315.9065256385124 722.4444444444443) rotate(0 61.48994445800781 12.5)"><text x="61.48994445800781" y="17.52" font-family="Virgil, Segoe UI Emoji" font-size="20px" fill="#1e1e1e" text-anchor="middle" style="white-space: pre;" direction="ltr" dominant-baseline="alphabetic">.UseFirstOne</text></g><g stroke-linecap="round"><g transform="translate(1424.1015046676714 769.9444444444445) rotate(0 67.85198696465682 18.73787944591453)"><path d="M-0.8 1.03 C21.76 7.14, 113.57 30.88, 136.46 36.96 M0.99 0.52 C23.36 6.77, 113.37 31.84, 135.91 38.23" stroke="#1e1e1e" stroke-width="2" fill="none"></path></g><g transform="translate(1424.1015046676714 769.9444444444445) rotate(0 67.85198696465682 18.73787944591453)"><path d="M110.98 40.12 C122.43 40.8, 129.62 40.18, 135.91 38.23 M110.98 40.12 C118.88 40.48, 125.7 38.14, 135.91 38.23" stroke="#1e1e1e" stroke-width="2" fill="none"></path></g><g transform="translate(1424.1015046676714 769.9444444444445) rotate(0 67.85198696465682 18.73787944591453)"><path d="M115.6 23.65 C125.28 30.75, 130.66 36.56, 135.91 38.23 M115.6 23.65 C122.2 29, 127.62 31.64, 135.91 38.23" stroke="#1e1e1e" stroke-width="2" fill="none"></path></g></g><mask></mask><g stroke-linecap="round" transform="translate(1429.032551163309 1461.3108262354194) rotate(0 166.25 30.5)"><path d="M15.25 0 C133.1 -0.31, 252.51 0.06, 317.25 0 M15.25 0 C103.48 -1.36, 190.55 -1.27, 317.25 0 M317.25 0 C325.52 -1.66, 332.7 4.65, 332.5 15.25 M317.25 0 C327.71 1.06, 334.58 4.78, 332.5 15.25 M332.5 15.25 C333.49 23.89, 332.89 32.05, 332.5 45.75 M332.5 15.25 C332.82 25.8, 332.17 34.12, 332.5 45.75 M332.5 45.75 C333.66 57.59, 325.69 62.73, 317.25 61 M332.5 45.75 C330.64 56.53, 327.3 62.6, 317.25 61 M317.25 61 C228.07 60.7, 139.43 59.83, 15.25 61 M317.25 61 C240.7 62.12, 165.64 62.8, 15.25 61 M15.25 61 C4.68 61.46, -1.42 56.08, 0 45.75 M15.25 61 C6.2 58.87, -0.02 54.48, 0 45.75 M0 45.75 C0.97 33.91, -0.7 22.33, 0 15.25 M0 45.75 C1 39.03, 0.11 30.33, 0 15.25 M0 15.25 C0.2 3.92, 4.7 -0.6, 15.25 0 M0 15.25 C-0.53 3.22, 7.31 -2.09, 15.25 0" stroke="#1e1e1e" stroke-width="2" fill="none"></path></g><g transform="translate(1549.1525996862583 1479.3108262354194) rotate(0 46.12995147705078 12.5)"><text x="46.12995147705078" y="17.52" font-family="Virgil, Segoe UI Emoji" font-size="20px" fill="#1e1e1e" text-anchor="middle" style="white-space: pre;" direction="ltr" dominant-baseline="alphabetic">OrdersApi</text></g><g stroke-linecap="round"><g transform="translate(1771.825410479878 758.2001109685934) rotate(0 -79.92933795199902 29.127878819775106)"><path d="M0.44 -0.6 C-26.45 9.09, -133.59 48.94, -160.21 58.88 M-0.79 1.7 C-27.97 10.98, -134.85 47.85, -161.34 57.09" stroke="#1e1e1e" stroke-width="2" fill="none"></path></g><g transform="translate(1771.825410479878 758.2001109685934) rotate(0 -79.92933795199902 29.127878819775106)"><path d="M-141.94 41.32 C-150.55 47.07, -156.2 54.87, -161.34 57.09 M-141.94 41.32 C-149.48 46.53, -156.94 53.24, -161.34 57.09" stroke="#1e1e1e" stroke-width="2" fill="none"></path></g><g transform="translate(1771.825410479878 758.2001109685934) rotate(0 -79.92933795199902 29.127878819775106)"><path d="M-136.34 57.48 C-147.27 56.83, -155.15 58.22, -161.34 57.09 M-136.34 57.48 C-145.97 56.8, -155.49 57.6, -161.34 57.09" stroke="#1e1e1e" stroke-width="2" fill="none"></path></g></g><mask></mask><g stroke-linecap="round"><g transform="translate(1595.282551163309 1521.8108262354194) rotate(0 1.0725415794918263 36.28462578457322)"><path d="M0.17 -0.76 C0.65 11.55, 2.04 61.45, 2.4 73.69 M-1.19 1.46 C-0.81 13.47, 1.12 60.06, 1.58 72.16" stroke="#1e1e1e" stroke-width="2" fill="none"></path></g><g transform="translate(1595.282551163309 1521.8108262354194) rotate(0 1.0725415794918263 36.28462578457322)"><path d="M-7.9 49.03 C-6.71 55.48, -1.1 61.36, 1.58 72.16 M-7.9 49.03 C-5.85 56.13, -2.18 63.09, 1.58 72.16" stroke="#1e1e1e" stroke-width="2" fill="none"></path></g><g transform="translate(1595.282551163309 1521.8108262354194) rotate(0 1.0725415794918263 36.28462578457322)"><path d="M9.19 48.34 C5.91 55, 7.06 61.06, 1.58 72.16 M9.19 48.34 C5.97 55.71, 4.37 62.88, 1.58 72.16" stroke="#1e1e1e" stroke-width="2" fill="none"></path></g></g><mask></mask><g stroke-linecap="round" transform="translate(1231.532551163309 2005.685826235419) rotate(0 166.25 30.5)"><path d="M15.25 0 C106.67 -0.49, 198.61 -0.96, 317.25 0 M15.25 0 C116.18 -0.73, 216.4 -0.48, 317.25 0 M317.25 0 C326.97 -1.33, 331.54 3.8, 332.5 15.25 M317.25 0 C328.9 1.42, 334.26 5.91, 332.5 15.25 M332.5 15.25 C331.27 23.42, 333.5 29.69, 332.5 45.75 M332.5 15.25 C333.39 25.68, 332.49 34.19, 332.5 45.75 M332.5 45.75 C332.66 54.3, 326.62 59.92, 317.25 61 M332.5 45.75 C330.6 55.66, 327.39 60.96, 317.25 61 M317.25 61 C215.09 59.69, 109.65 60.06, 15.25 61 M317.25 61 C233.84 59.67, 149.83 60.17, 15.25 61 M15.25 61 C6.5 60.07, 1.99 57.3, 0 45.75 M15.25 61 C5.06 60, 2.27 55.63, 0 45.75 M0 45.75 C1.81 38.32, 0.86 34.86, 0 15.25 M0 45.75 C-0.86 39.05, -0.99 31.28, 0 15.25 M0 15.25 C-1.41 6.58, 3.83 -0.79, 15.25 0 M0 15.25 C-0.81 2.82, 2.87 -0.24, 15.25 0" stroke="#1e1e1e" stroke-width="2" fill="none"></path></g><g transform="translate(1271.902637833231 2011.185826235419) rotate(0 125.87991333007812 25)"><text x="125.87991333007812" y="17.52" font-family="Virgil, Segoe UI Emoji" font-size="20px" fill="#1e1e1e" text-anchor="middle" style="white-space: pre;" direction="ltr" dominant-baseline="alphabetic">.GetOrdersByPage</text><text x="125.87991333007812" y="42.519999999999996" font-family="Virgil, Segoe UI Emoji" font-size="20px" fill="#1e1e1e" text-anchor="middle" style="white-space: pre;" direction="ltr" dominant-baseline="alphabetic"> (we always consume 100)</text></g><g stroke-linecap="round"><g transform="translate(1397.422844954487 2068.060826235419) rotate(0 -1.5909802289222625 27.395833333333258)"><path d="M-0.97 0.71 C-1.53 10.01, -3.62 46.18, -4.09 55.34 M0.71 0.03 C0.6 9.03, -0.92 44.55, -1.85 53.51" stroke="#1e1e1e" stroke-width="2" fill="none"></path></g><g transform="translate(1397.422844954487 2068.060826235419) rotate(0 -1.5909802289222625 27.395833333333258)"><path d="M-8.78 29.49 C-6.05 33.73, -4.67 39.88, -1.85 53.51 M-8.78 29.49 C-6.84 38.24, -4.33 47.56, -1.85 53.51" stroke="#1e1e1e" stroke-width="2" fill="none"></path></g><g transform="translate(1397.422844954487 2068.060826235419) rotate(0 -1.5909802289222625 27.395833333333258)"><path d="M8.28 30.66 C6.96 34.48, 4.29 40.35, -1.85 53.51 M8.28 30.66 C3.84 39.08, -0.03 47.97, -1.85 53.51" stroke="#1e1e1e" stroke-width="2" fill="none"></path></g></g><mask></mask><g stroke-linecap="round" transform="translate(1229.2408844966424 2127.3524929020855) rotate(0 166.25 30.5)"><path d="M15.25 0 C78.07 0.49, 139.77 1.26, 317.25 0 M15.25 0 C93.38 -2.05, 171.24 -0.88, 317.25 0 M317.25 0 C329.34 1.78, 332.97 3.8, 332.5 15.25 M317.25 0 C327.68 1.28, 330.8 4.91, 332.5 15.25 M332.5 15.25 C333.08 23.73, 334.28 27.53, 332.5 45.75 M332.5 15.25 C332.06 22.87, 332.57 30.46, 332.5 45.75 M332.5 45.75 C332.31 57.71, 326.92 59.74, 317.25 61 M332.5 45.75 C334.56 55, 327.19 58.82, 317.25 61 M317.25 61 C253.73 60.75, 191.77 62.28, 15.25 61 M317.25 61 C216.16 62.45, 114.59 62.33, 15.25 61 M15.25 61 C3.32 60.56, -0.7 54.49, 0 45.75 M15.25 61 C5.11 61.87, -0.81 53.76, 0 45.75 M0 45.75 C-1.13 39.42, 1.64 29.76, 0 15.25 M0 45.75 C-0.77 37.38, 0.58 29.95, 0 15.25 M0 15.25 C-1.79 5.65, 3.09 1.64, 15.25 0 M0 15.25 C1.76 6.03, 6.65 -1.97, 15.25 0" stroke="#1e1e1e" stroke-width="2" fill="none"></path></g><g transform="translate(1288.2209717769158 2145.3524929020855) rotate(0 107.26991271972656 12.5)"><text x="107.26991271972656" y="17.52" font-family="Virgil, Segoe UI Emoji" font-size="20px" fill="#1e1e1e" text-anchor="middle" style="white-space: pre;" direction="ltr" dominant-baseline="alphabetic">Map orders to domain</text></g><g stroke-linecap="round" transform="translate(1310.4908844966424 2277.2274929020855) rotate(0 90.625 78.75)"><path d="M113.75 19.75 C127.01 32.85, 142.27 45.58, 158.5 59.25 M113.75 19.75 C126.27 29.87, 136.72 40.51, 158.5 59.25 M158.5 59.25 C181.67 80.41, 179.97 78.71, 158.5 98.75 M158.5 59.25 C180.21 78, 183.27 79.12, 158.5 98.75 M158.5 98.75 C148.24 107.66, 135.67 118.04, 113.75 137.75 M158.5 98.75 C142.87 113.32, 127.2 126.68, 113.75 137.75 M113.75 137.75 C89.72 158.59, 91.32 158.15, 68.25 137.75 M113.75 137.75 C90.9 159.34, 89.18 157.83, 68.25 137.75 M68.25 137.75 C49.49 122.31, 31.89 107.32, 22.75 98.75 M68.25 137.75 C57.57 130.46, 47.88 120.85, 22.75 98.75 M22.75 98.75 C-1.65 80.18, 1.5 79.7, 22.75 59.25 M22.75 98.75 C1.97 77.74, -0.34 76.75, 22.75 59.25 M22.75 59.25 C37.4 44.94, 53.64 34.96, 68.25 19.75 M22.75 59.25 C34.7 49.38, 43.92 40.44, 68.25 19.75 M68.25 19.75 C89.92 1.34, 90.02 -0.25, 113.75 19.75 M68.25 19.75 C88.81 -1.68, 92.95 2.04, 113.75 19.75" stroke="#1e1e1e" stroke-width="2" fill="none"></path></g><g transform="translate(1367.7634064692986 2331.1024929020855) rotate(0 33.53997802734375 25)"><text x="33.53997802734375" y="17.52" font-family="Virgil, Segoe UI Emoji" font-size="20px" fill="#1e1e1e" text-anchor="middle" style="white-space: pre;" direction="ltr" dominant-baseline="alphabetic">Any is </text><text x="33.53997802734375" y="42.519999999999996" font-family="Virgil, Segoe UI Emoji" font-size="20px" fill="#1e1e1e" text-anchor="middle" style="white-space: pre;" direction="ltr" dominant-baseline="alphabetic">wrong?</text></g><g stroke-linecap="round"><g transform="translate(1397.3658844966424 2187.8524929020855) rotate(0 0.3125 44.375)"><path d="M-1.05 0.47 C-0.9 15.36, 0.51 74.84, 0.93 89.46 M0.6 -0.33 C0.62 14.21, 0.05 72.79, 0.14 87.71" stroke="#1e1e1e" stroke-width="2" fill="none"></path></g><g transform="translate(1397.3658844966424 2187.8524929020855) rotate(0 0.3125 44.375)"><path d="M-8.35 64.19 C-4.99 71.84, -2.04 79.8, 0.14 87.71 M-8.35 64.19 C-7.25 70.03, -3.75 75.22, 0.14 87.71" stroke="#1e1e1e" stroke-width="2" fill="none"></path></g><g transform="translate(1397.3658844966424 2187.8524929020855) rotate(0 0.3125 44.375)"><path d="M8.76 64.24 C6.97 71.72, 4.79 79.67, 0.14 87.71 M8.76 64.24 C5.54 70.01, 4.73 75.18, 0.14 87.71" stroke="#1e1e1e" stroke-width="2" fill="none"></path></g></g><mask></mask><g mask="url(#mask-NBeY9HMe2jVWaR3nwNy38)" stroke-linecap="round"><g transform="translate(1485.3189279847372 2389.824424525379) rotate(0 114.27265455127944 62.82716297623688)"><path d="M-0.53 -0.8 C37.58 19.96, 190.32 103.59, 228.43 124.49 M1.39 1.4 C39.36 22.26, 189.8 104.75, 227.43 125.41" stroke="#1e1e1e" stroke-width="2" fill="none"></path></g><g transform="translate(1485.3189279847372 2389.824424525379) rotate(0 114.27265455127944 62.82716297623688)"><path d="M202.72 121.61 C208.24 122.59, 214.49 123.15, 227.43 125.41 M202.72 121.61 C207.8 121.76, 213.64 123.99, 227.43 125.41" stroke="#1e1e1e" stroke-width="2" fill="none"></path></g><g transform="translate(1485.3189279847372 2389.824424525379) rotate(0 114.27265455127944 62.82716297623688)"><path d="M210.94 106.61 C214.18 111.72, 218.14 116.45, 227.43 125.41 M210.94 106.61 C214.32 109.97, 218.42 115.35, 227.43 125.41" stroke="#1e1e1e" stroke-width="2" fill="none"></path></g></g><mask id="mask-NBeY9HMe2jVWaR3nwNy38"><rect x="0" y="0" fill="#fff" width="1813.8642370872963" height="2615.478750477853"></rect><rect x="1581.611594437872" y="2440.151587501616" fill="#000" width="35.95997619628906" height="25" opacity="1"></rect></mask><g transform="translate(1581.611594437872 2440.1515875016157) rotate(0 17.658209301903852 11.977496277084583)"><text x="17.97998809814453" y="17.52" font-family="Virgil, Segoe UI Emoji" font-size="20px" fill="#1e1e1e" text-anchor="middle" style="white-space: pre;" direction="ltr" dominant-baseline="alphabetic">YES</text></g><g stroke-linecap="round" transform="translate(1537.7825511633089 2517.8259727000755) rotate(0 166.25 42.5)"><path d="M21.25 0 C104.21 0.93, 190.85 0.56, 311.25 0 M21.25 0 C93.85 -2.52, 167.06 -2.69, 311.25 0 M311.25 0 C327.04 0.38, 332.83 8.5, 332.5 21.25 M311.25 0 C326.21 -2.3, 333.87 7.34, 332.5 21.25 M332.5 21.25 C332.44 33.45, 330.81 44.32, 332.5 63.75 M332.5 21.25 C331.58 34.63, 332.05 49.67, 332.5 63.75 M332.5 63.75 C332.66 76.12, 323.81 85.87, 311.25 85 M332.5 63.75 C331.49 77.59, 325.33 85.47, 311.25 85 M311.25 85 C244.34 84.1, 177.27 84.27, 21.25 85 M311.25 85 C200.66 84.98, 89.59 84.01, 21.25 85 M21.25 85 C8.42 84.75, -1.84 76.26, 0 63.75 M21.25 85 C6.63 83.5, 1.61 77.88, 0 63.75 M0 63.75 C0.26 54.12, -1.77 45.82, 0 21.25 M0 63.75 C0.09 52.2, 1.02 38.66, 0 21.25 M0 21.25 C-1.46 8.78, 8.61 1.42, 21.25 0 M0 21.25 C0.27 7.93, 8.91 0.27, 21.25 0" stroke="#e03131" stroke-width="2" fill="none"></path></g><g transform="translate(1560.102650040262 2522.8259727000755) rotate(0 143.92990112304688 37.5)"><text x="143.92990112304688" y="17.52" font-family="Virgil, Segoe UI Emoji" font-size="20px" fill="#e03131" text-anchor="middle" style="white-space: pre;" direction="ltr" dominant-baseline="alphabetic">Concat errors and </text><text x="143.92990112304688" y="42.519999999999996" font-family="Virgil, Segoe UI Emoji" font-size="20px" fill="#e03131" text-anchor="middle" style="white-space: pre;" direction="ltr" dominant-baseline="alphabetic">save it into a CSV file then </text><text x="143.92990112304688" y="67.52" font-family="Virgil, Segoe UI Emoji" font-size="20px" fill="#e03131" text-anchor="middle" style="white-space: pre;" direction="ltr" dominant-baseline="alphabetic">STOP</text></g><g mask="url(#mask-unV8jOA44TILP_v-T1L2b)" stroke-linecap="round"><g transform="translate(1347.994777070124 2402.3171880507143) rotate(0 -95.14145228721279 55.54683510853329)"><path d="M-0.13 -0.58 C-31.77 17.99, -157.85 93.74, -189.65 112.24 M-1.66 1.73 C-33.42 19.93, -158.54 92.45, -190.26 110.71" stroke="#1e1e1e" stroke-width="2" fill="none"></path></g><g transform="translate(1347.994777070124 2402.3171880507143) rotate(0 -95.14145228721279 55.54683510853329)"><path d="M-174.2 91.56 C-180.07 98.6, -182.24 102.51, -190.26 110.71 M-174.2 91.56 C-177.28 96.2, -181.78 101.31, -190.26 110.71" stroke="#1e1e1e" stroke-width="2" fill="none"></path></g><g transform="translate(1347.994777070124 2402.3171880507143) rotate(0 -95.14145228721279 55.54683510853329)"><path d="M-165.64 106.36 C-174.3 108.76, -179.14 108.03, -190.26 110.71 M-165.64 106.36 C-170.74 107.39, -177.29 108.95, -190.26 110.71" stroke="#1e1e1e" stroke-width="2" fill="none"></path></g></g><mask id="mask-unV8jOA44TILP_v-T1L2b"><rect x="0" y="0" fill="#fff" width="1638.2776816445496" height="2613.410858267781"></rect><rect x="1239.1533354640635" y="2445.364023159247" fill="#000" width="27.399978637695312" height="25" opacity="1"></rect></mask><g transform="translate(1239.1533354640635 2445.364023159247) rotate(0 13.642871782341956 12.78098874501893)"><text x="13.699989318847656" y="17.52" font-family="Virgil, Segoe UI Emoji" font-size="20px" fill="#1e1e1e" text-anchor="middle" style="white-space: pre;" direction="ltr" dominant-baseline="alphabetic">NO</text></g><g stroke-linecap="round" transform="translate(704.9739258390292 3026.5360712495326) rotate(0 166.25 30.5)"><path d="M15.25 0 C120.95 0.81, 227.21 2.32, 317.25 0 M15.25 0 C111.9 -2.29, 208.49 -1.48, 317.25 0 M317.25 0 C326.74 -0.88, 331.65 5.21, 332.5 15.25 M317.25 0 C328.45 -1.73, 333.03 5.95, 332.5 15.25 M332.5 15.25 C330.57 22.42, 331.93 30.73, 332.5 45.75 M332.5 15.25 C331.82 21.52, 332.22 28.28, 332.5 45.75 M332.5 45.75 C331.07 55.27, 326.01 60.18, 317.25 61 M332.5 45.75 C333.46 53.8, 328.64 62.88, 317.25 61 M317.25 61 C205.45 60.76, 90.68 62.28, 15.25 61 M317.25 61 C230.31 58.7, 144.17 59.16, 15.25 61 M15.25 61 C3.73 60.9, 1.41 56.16, 0 45.75 M15.25 61 C5.37 58.94, 2.09 55.79, 0 45.75 M0 45.75 C1.99 40.38, -0.04 30.85, 0 15.25 M0 45.75 C-0.12 34.37, 0.56 22.38, 0 15.25 M0 15.25 C1.1 6, 5.5 -0.4, 15.25 0 M0 15.25 C-1.28 3.23, 4.07 0.07, 15.25 0" stroke="#1e1e1e" stroke-width="2" fill="none"></path></g><g transform="translate(759.7240402799472 3044.5360712495326) rotate(0 111.49988555908203 12.5)"><text x="111.49988555908203" y="17.52" font-family="Virgil, Segoe UI Emoji" font-size="20px" fill="#1e1e1e" text-anchor="middle" style="white-space: pre;" direction="ltr" dominant-baseline="alphabetic">OrdersTotalRepository</text></g><g stroke-linecap="round" transform="translate(716.4322591723626 3165.69949045058) rotate(0 166.25 30.5)"><path d="M15.25 0 C87.25 1.69, 157.43 0.38, 317.25 0 M15.25 0 C119.77 -0.73, 224.28 -0.5, 317.25 0 M317.25 0 C328.8 -1.98, 333.68 6.9, 332.5 15.25 M317.25 0 C328.33 2.06, 330.95 5.89, 332.5 15.25 M332.5 15.25 C333.81 23.01, 330.75 33.05, 332.5 45.75 M332.5 15.25 C332.86 26.13, 332.62 37.85, 332.5 45.75 M332.5 45.75 C332.33 55.21, 326.51 62.13, 317.25 61 M332.5 45.75 C334.15 55.55, 329.07 60.21, 317.25 61 M317.25 61 C251.99 61.6, 186.38 59.41, 15.25 61 M317.25 61 C234.54 60.38, 151.69 59.55, 15.25 61 M15.25 61 C5.84 60.6, 0.84 57.78, 0 45.75 M15.25 61 C3.98 61.93, 0.12 55.39, 0 45.75 M0 45.75 C1.67 35.85, -1.05 23.26, 0 15.25 M0 45.75 C0.38 36.13, 0.69 25.38, 0 15.25 M0 15.25 C0.36 4.11, 6.2 -1.35, 15.25 0 M0 15.25 C-2.1 5.2, 3.17 0.28, 15.25 0" stroke="#1e1e1e" stroke-width="2" fill="none"></path></g><g transform="translate(808.6623159350579 3183.69949045058) rotate(0 74.01994323730469 12.5)"><text x="74.01994323730469" y="17.52" font-family="Virgil, Segoe UI Emoji" font-size="20px" fill="#1e1e1e" text-anchor="middle" style="white-space: pre;" direction="ltr" dominant-baseline="alphabetic">.GetLastTotal</text></g><g stroke-linecap="round"><g transform="translate(882.3430860962436 3088.5360712495326) rotate(0 -1.050716608117682 38.08170960052371)"><path d="M0.08 -0.9 C-0.44 11.84, -2.81 64.45, -3.01 77.15 M-1.34 1.25 C-1.49 13.59, -0.78 63.06, -0.77 75.55" stroke="#1e1e1e" stroke-width="2" fill="none"></path></g><g transform="translate(882.3430860962436 3088.5360712495326) rotate(0 -1.050716608117682 38.08170960052371)"><path d="M-9.51 52.12 C-8.17 57.81, -2.34 68.21, -0.77 75.55 M-9.51 52.12 C-6.76 57.72, -5.04 62.53, -0.77 75.55" stroke="#1e1e1e" stroke-width="2" fill="none"></path></g><g transform="translate(882.3430860962436 3088.5360712495326) rotate(0 -1.050716608117682 38.08170960052371)"><path d="M7.59 51.99 C3.68 57.72, 4.25 68.17, -0.77 75.55 M7.59 51.99 C6.46 57.74, 4.3 62.58, -0.77 75.55" stroke="#1e1e1e" stroke-width="2" fill="none"></path></g></g><mask></mask><g stroke-linecap="round" transform="translate(989.3754352809441 2517.9811571138794) rotate(0 166.25 25.27756368881444)"><path d="M12.64 0 C113.69 0.58, 215 -0.06, 319.86 0 M12.64 0 C96.65 -1.79, 180.26 -1.59, 319.86 0 M319.86 0 C327.52 0.84, 333.09 3.7, 332.5 12.64 M319.86 0 C328.65 0.22, 332.68 5.34, 332.5 12.64 M332.5 12.64 C330.91 20.3, 333.35 32.72, 332.5 37.92 M332.5 12.64 C332.71 20.08, 332.49 29.32, 332.5 37.92 M332.5 37.92 C331.41 47.91, 328.02 49.81, 319.86 50.56 M332.5 37.92 C332.81 44.36, 326.83 48.32, 319.86 50.56 M319.86 50.56 C246.85 50.55, 175.96 50.19, 12.64 50.56 M319.86 50.56 C203 49.39, 85.47 49.81, 12.64 50.56 M12.64 50.56 C2.77 49.23, 1.21 44.7, 0 37.92 M12.64 50.56 C3.64 49.83, -2.27 45.87, 0 37.92 M0 37.92 C-1.56 33.54, 0.61 26.62, 0 12.64 M0 37.92 C-0.37 32.15, 0.9 26.48, 0 12.64 M0 12.64 C1.04 3.65, 4.89 0.4, 12.64 0 M0 12.64 C2.02 5.46, 3.26 1.02, 12.64 0" stroke="#1e1e1e" stroke-width="2" fill="none"></path></g><g transform="translate(1038.695557046081 2530.758720802694) rotate(0 116.92987823486328 12.5)"><text x="116.92987823486328" y="17.52" font-family="Virgil, Segoe UI Emoji" font-size="20px" fill="#1e1e1e" text-anchor="middle" style="white-space: pre;" direction="ltr" dominant-baseline="alphabetic">OrdersTotalsRepository</text></g><g stroke-linecap="round" transform="translate(795.743276431753 3296.79667257448) rotate(0 90.625 85)"><path d="M113.75 21.5 C126.89 33.92, 136.78 45.21, 158.5 64.5 M113.75 21.5 C125.28 31.55, 136.91 42.72, 158.5 64.5 M158.5 64.5 C181.39 87.64, 182.7 86.75, 158.5 107.5 M158.5 64.5 C182.78 87.02, 180.91 86, 158.5 107.5 M158.5 107.5 C141.77 121.78, 124.03 139.02, 113.75 148.5 M158.5 107.5 C141.3 122.83, 126 138.09, 113.75 148.5 M113.75 148.5 C89.43 170.47, 91.16 170.15, 68.25 148.5 M113.75 148.5 C92.95 170.24, 92.58 169.78, 68.25 148.5 M68.25 148.5 C51.88 134.83, 35.34 118.79, 22.75 107.5 M68.25 148.5 C51.56 133.63, 34.31 116.24, 22.75 107.5 M22.75 107.5 C1.52 84.26, -0.73 87.31, 22.75 64.5 M22.75 107.5 C2.07 87.8, -1.28 85.3, 22.75 64.5 M22.75 64.5 C39.3 46.63, 57.08 33.31, 68.25 21.5 M22.75 64.5 C34.75 52.43, 48.2 39.49, 68.25 21.5 M68.25 21.5 C91.89 1.96, 90.61 -1.76, 113.75 21.5 M68.25 21.5 C92.69 -0.72, 89.59 0.99, 113.75 21.5" stroke="#1e1e1e" stroke-width="2" fill="none"></path></g><g transform="translate(846.4158075596827 3344.29667257448) rotate(0 40.13996887207031 37.5)"><text x="40.13996887207031" y="17.52" font-family="Virgil, Segoe UI Emoji" font-size="20px" fill="#1e1e1e" text-anchor="middle" style="white-space: pre;" direction="ltr" dominant-baseline="alphabetic">An error</text><text x="40.13996887207031" y="42.519999999999996" font-family="Virgil, Segoe UI Emoji" font-size="20px" fill="#1e1e1e" text-anchor="middle" style="white-space: pre;" direction="ltr" dominant-baseline="alphabetic">ocurred</text><text x="40.13996887207031" y="67.52" font-family="Virgil, Segoe UI Emoji" font-size="20px" fill="#1e1e1e" text-anchor="middle" style="white-space: pre;" direction="ltr" dominant-baseline="alphabetic">?</text></g><g mask="url(#mask-MhphRk5qU8jtQaRKr0_Ul)" stroke-linecap="round"><g transform="translate(970.5713199198477 3409.3936041977736) rotate(0 114.27265455127946 62.82716297623688)"><path d="M0 -0.47 C38.21 20.77, 191.69 105.63, 229.68 126.48 M-1.46 -1.77 C36.66 19.22, 191.28 103.59, 229.32 124.79" stroke="#1e1e1e" stroke-width="2" fill="none"></path></g><g transform="translate(970.5713199198477 3409.3936041977736) rotate(0 114.27265455127946 62.82716297623688)"><path d="M204.62 120.95 C212.02 124.12, 222.41 122.44, 229.32 124.79 M204.62 120.95 C209.99 122.82, 215.96 123.2, 229.32 124.79" stroke="#1e1e1e" stroke-width="2" fill="none"></path></g><g transform="translate(970.5713199198477 3409.3936041977736) rotate(0 114.27265455127946 62.82716297623688)"><path d="M212.87 105.97 C217.41 114.12, 225.05 117.43, 229.32 124.79 M212.87 105.97 C216.37 110.99, 220.57 114.6, 229.32 124.79" stroke="#1e1e1e" stroke-width="2" fill="none"></path></g></g><mask id="mask-MhphRk5qU8jtQaRKr0_Ul"><rect x="0" y="0" fill="#fff" width="1299.1166290224066" height="3635.0479301502473"></rect><rect x="1066.8639863729827" y="3459.72076717401" fill="#000" width="35.95997619628906" height="25" opacity="1"></rect></mask><g transform="translate(1066.8639863729827 3459.72076717401) rotate(0 17.812989285001436 12.03029077424685)"><text x="17.97998809814453" y="17.52" font-family="Virgil, Segoe UI Emoji" font-size="20px" fill="#1e1e1e" text-anchor="middle" style="white-space: pre;" direction="ltr" dominant-baseline="alphabetic">YES</text></g><g mask="url(#mask-xOqXNy0XQS1hoA1UP_7Sx)" stroke-linecap="round"><g transform="translate(831.9202065908884 3427.4005242868175) rotate(0 -95.08238569122472 58.40703626504819)"><path d="M-0.64 -1.02 C-32.64 18.14, -159.27 95.95, -190.85 115.75 M1.22 1.07 C-30.48 20.26, -156.49 97.58, -188.49 116.73" stroke="#1e1e1e" stroke-width="2" fill="none"></path></g><g transform="translate(831.9202065908884 3427.4005242868175) rotate(0 -95.08238569122472 58.40703626504819)"><path d="M-172.85 97.23 C-180.57 103.7, -186.82 112.66, -188.49 116.73 M-172.85 97.23 C-178.02 105.19, -184.81 112.19, -188.49 116.73" stroke="#1e1e1e" stroke-width="2" fill="none"></path></g><g transform="translate(831.9202065908884 3427.4005242868175) rotate(0 -95.08238569122472 58.40703626504819)"><path d="M-163.97 111.85 C-175.3 112.51, -185.04 115.71, -188.49 116.73 M-163.97 111.85 C-172.64 114.25, -182.82 115.67, -188.49 116.73" stroke="#1e1e1e" stroke-width="2" fill="none"></path></g></g><mask id="mask-xOqXNy0XQS1hoA1UP_7Sx"><rect x="0" y="0" fill="#fff" width="1122.0849779733378" height="3644.2145968169143"></rect><rect x="723.137831580816" y="3473.307560551866" fill="#000" width="27.399978637695312" height="25" opacity="1"></rect></mask><g transform="translate(723.137831580816 3473.307560551866) rotate(0 13.969108090111888 11.951445164224424)"><text x="13.699989318847656" y="17.52" font-family="Virgil, Segoe UI Emoji" font-size="20px" fill="#1e1e1e" text-anchor="middle" style="white-space: pre;" direction="ltr" dominant-baseline="alphabetic">NO</text></g><g stroke-linecap="round"><g transform="translate(885.1846871636574 3231.864774177426) rotate(0 0.11864798997822845 33.42300249326263)"><path d="M-0.24 0.87 C-0.43 11.92, -0.09 55.2, 0.06 66.21 M-1.83 0.27 C-2.29 11.48, -1.31 56.08, -0.98 67.41" stroke="#1e1e1e" stroke-width="2" fill="none"></path></g><g transform="translate(885.1846871636574 3231.864774177426) rotate(0 0.11864798997822845 33.42300249326263)"><path d="M-10.09 44.13 C-5.05 53.1, -3.93 63.38, -0.98 67.41 M-10.09 44.13 C-7.04 52.2, -4.62 57.95, -0.98 67.41" stroke="#1e1e1e" stroke-width="2" fill="none"></path></g><g transform="translate(885.1846871636574 3231.864774177426) rotate(0 0.11864798997822845 33.42300249326263)"><path d="M7.01 43.72 C5.26 52.82, -0.42 63.27, -0.98 67.41 M7.01 43.72 C4.81 51.81, 1.99 57.69, -0.98 67.41" stroke="#1e1e1e" stroke-width="2" fill="none"></path></g></g><mask></mask><g stroke-linecap="round" transform="translate(1047.473925839029 3540.2431470070983) rotate(0 166.25 42.5)"><path d="M21.25 0 C137.14 1.15, 251.49 1.48, 311.25 0 M21.25 0 C114.02 -0.91, 208.4 -0.17, 311.25 0 M311.25 0 C324.42 0.56, 333 8.67, 332.5 21.25 M311.25 0 C326 -0.78, 333.24 5.55, 332.5 21.25 M332.5 21.25 C333.54 36.36, 330.33 51.25, 332.5 63.75 M332.5 21.25 C332.58 34.09, 332.4 48.88, 332.5 63.75 M332.5 63.75 C333.11 76.83, 324.85 84.06, 311.25 85 M332.5 63.75 C330.29 78.76, 323.61 82.98, 311.25 85 M311.25 85 C220.78 84.15, 133.02 86.29, 21.25 85 M311.25 85 C199.5 82.77, 86.52 83.84, 21.25 85 M21.25 85 C5.15 84.07, 1.69 78.37, 0 63.75 M21.25 85 C5.68 83.94, 0.66 76.24, 0 63.75 M0 63.75 C2.32 46.46, 1.37 34.43, 0 21.25 M0 63.75 C0.02 50.51, 1 38.46, 0 21.25 M0 21.25 C-0.34 7.34, 6.83 -0.8, 21.25 0 M0 21.25 C1.13 6.25, 5.93 -0.75, 21.25 0" stroke="#e03131" stroke-width="2" fill="none"></path></g><g transform="translate(1084.2240326505525 3545.2431470070983) rotate(0 129.49989318847656 37.5)"><text x="129.49989318847656" y="17.52" font-family="Virgil, Segoe UI Emoji" font-size="20px" fill="#e03131" text-anchor="middle" style="white-space: pre;" direction="ltr" dominant-baseline="alphabetic">Rerturm error on console, </text><text x="129.49989318847656" y="42.519999999999996" font-family="Virgil, Segoe UI Emoji" font-size="20px" fill="#e03131" text-anchor="middle" style="white-space: pre;" direction="ltr" dominant-baseline="alphabetic">rollback and</text><text x="129.49989318847656" y="67.52" font-family="Virgil, Segoe UI Emoji" font-size="20px" fill="#e03131" text-anchor="middle" style="white-space: pre;" direction="ltr" dominant-baseline="alphabetic">STOP</text></g><g stroke-linecap="round" transform="translate(1504.4492178299756 1596.094919669758) rotate(0 95.625 85)"><path d="M120 21.5 C135.45 37.18, 153.28 50.19, 167.25 64.5 M120 21.5 C131.9 33.85, 144.97 43.99, 167.25 64.5 M167.25 64.5 C191.08 86.38, 192.05 85.18, 167.25 107.5 M167.25 64.5 C191.59 85.57, 191.02 85.69, 167.25 107.5 M167.25 107.5 C150.88 120.65, 138.63 133.41, 120 148.5 M167.25 107.5 C150.19 121.79, 132.59 137.9, 120 148.5 M120 148.5 C97.96 169.91, 97.39 170.94, 72 148.5 M120 148.5 C96.88 170.74, 93.95 170.04, 72 148.5 M72 148.5 C59.6 137.99, 48.79 130.31, 24 107.5 M72 148.5 C61.07 138.63, 48.75 129.52, 24 107.5 M24 107.5 C0.48 84.56, -0.3 85.5, 24 64.5 M24 107.5 C0.88 87.03, -0.57 84.51, 24 64.5 M24 64.5 C36.84 52.67, 49.69 40.78, 72 21.5 M24 64.5 C34.78 55.34, 46.36 45.12, 72 21.5 M72 21.5 C95.11 1.88, 97.04 -0.74, 120 21.5 M72 21.5 C96.99 1.06, 95.04 -0.31, 120 21.5" stroke="#1e1e1e" stroke-width="2" fill="none"></path></g><g transform="translate(1558.1717520096631 1656.094919669758) rotate(0 42.0899658203125 25)"><text x="42.0899658203125" y="17.52" font-family="Virgil, Segoe UI Emoji" font-size="20px" fill="#1e1e1e" text-anchor="middle" style="white-space: pre;" direction="ltr" dominant-baseline="alphabetic">Any http</text><text x="42.0899658203125" y="42.519999999999996" font-family="Virgil, Segoe UI Emoji" font-size="20px" fill="#1e1e1e" text-anchor="middle" style="white-space: pre;" direction="ltr" dominant-baseline="alphabetic">error?</text></g><g mask="url(#mask-xQbabSmOAR1zrEUlwyC-Z)" stroke-linecap="round"><g transform="translate(1679.2772613180705 1708.6918512930515) rotate(0 114.27265455127944 62.82716297623688)"><path d="M-1.07 -0.44 C37.03 20.33, 190.56 103.64, 228.71 124.79 M0.57 -1.72 C38.51 19.17, 189.56 104.82, 227.86 125.87" stroke="#1e1e1e" stroke-width="2" fill="none"></path></g><g transform="translate(1679.2772613180705 1708.6918512930515) rotate(0 114.27265455127944 62.82716297623688)"><path d="M203.18 121.87 C210.14 123.62, 217.12 123.39, 227.86 125.87 M203.18 121.87 C212.2 123.65, 221.79 124.53, 227.86 125.87" stroke="#1e1e1e" stroke-width="2" fill="none"></path></g><g transform="translate(1679.2772613180705 1708.6918512930515) rotate(0 114.27265455127944 62.82716297623688)"><path d="M211.53 106.94 C215.9 113.27, 220.29 117.7, 227.86 125.87 M211.53 106.94 C217.47 114.2, 223.98 120.58, 227.86 125.87" stroke="#1e1e1e" stroke-width="2" fill="none"></path></g></g><mask id="mask-xQbabSmOAR1zrEUlwyC-Z"><rect x="0" y="0" fill="#fff" width="2007.8225704206293" height="1934.3461772455253"></rect><rect x="1775.5699277712056" y="1759.0190142692886" fill="#000" width="35.95997619628906" height="25" opacity="1"></rect></mask><g transform="translate(1775.5699277712054 1759.019014269288) rotate(0 17.530561866238713 11.749109156187615)"><text x="17.97998809814453" y="17.52" font-family="Virgil, Segoe UI Emoji" font-size="20px" fill="#1e1e1e" text-anchor="middle" style="white-space: pre;" direction="ltr" dominant-baseline="alphabetic">YES</text></g><g mask="url(#mask-G3CyPesbIgNUe8D2n42i2)" stroke-linecap="round"><g transform="translate(1543.7693795118037 1727.4369994857693) rotate(0 -95.5686299567034 58.03792221321123)"><path d="M-0.1 0.23 C-31.89 19.59, -158.85 96.31, -190.66 115.58 M-1.61 -0.7 C-33.52 18.87, -159.69 97.24, -191.36 116.86" stroke="#1e1e1e" stroke-width="2" fill="none"></path></g><g transform="translate(1543.7693795118037 1727.4369994857693) rotate(0 -95.5686299567034 58.03792221321123)"><path d="M-175.9 97.21 C-180.32 103.97, -186.22 109.45, -191.36 116.86 M-175.9 97.21 C-180.04 103.1, -184.27 107.61, -191.36 116.86" stroke="#1e1e1e" stroke-width="2" fill="none"></path></g><g transform="translate(1543.7693795118037 1727.4369994857693) rotate(0 -95.5686299567034 58.03792221321123)"><path d="M-166.89 111.75 C-173.97 114.08, -182.62 115.14, -191.36 116.86 M-166.89 111.75 C-173.55 113.54, -180.32 113.95, -191.36 116.86" stroke="#1e1e1e" stroke-width="2" fill="none"></path></g></g><mask id="mask-G3CyPesbIgNUe8D2n42i2"><rect x="0" y="0" fill="#fff" width="1834.9066394252104" height="1943.5128439121918"></rect><rect x="1434.5007602362525" y="1772.9749216989806" fill="#000" width="27.399978637695312" height="25" opacity="1"></rect></mask><g transform="translate(1434.5007602362525 1772.9749216989808) rotate(0 13.538868324467913 12.545599502380924)"><text x="13.699989318847656" y="17.52" font-family="Virgil, Segoe UI Emoji" font-size="20px" fill="#1e1e1e" text-anchor="middle" style="white-space: pre;" direction="ltr" dominant-baseline="alphabetic">NO</text></g><g stroke-linecap="round" transform="translate(1234.657551163309 1852.3878439121922) rotate(0 166.25 30.5)"><path d="M15.25 0 C117.59 -0.48, 220.27 0, 317.25 0 M15.25 0 C117.31 2.04, 219.29 1.95, 317.25 0 M317.25 0 C326.29 -1.31, 334.13 3.66, 332.5 15.25 M317.25 0 C329.39 0.21, 334.76 4.98, 332.5 15.25 M332.5 15.25 C333.29 24.73, 332.68 36.51, 332.5 45.75 M332.5 15.25 C332.15 22.87, 333.16 30.57, 332.5 45.75 M332.5 45.75 C332.51 55.94, 328.71 61.02, 317.25 61 M332.5 45.75 C332.26 57.71, 327.96 59.34, 317.25 61 M317.25 61 C231.88 61.48, 144.24 61.7, 15.25 61 M317.25 61 C200.02 59.57, 82.83 59.74, 15.25 61 M15.25 61 C5.9 60.5, -0.54 57.47, 0 45.75 M15.25 61 C5.28 62.41, -1.03 58.08, 0 45.75 M0 45.75 C1.04 34.18, -0.16 24.11, 0 15.25 M0 45.75 C-0.57 35.03, -0.11 23.74, 0 15.25 M0 15.25 C0.86 3.17, 3.86 1.48, 15.25 0 M0 15.25 C-2.03 5.25, 7.03 0.93, 15.25 0" stroke="#1e1e1e" stroke-width="2" fill="none"></path></g><g transform="translate(1317.9376414953404 1870.3878439121922) rotate(0 82.96990966796875 12.5)"><text x="82.96990966796875" y="17.52" font-family="Virgil, Segoe UI Emoji" font-size="20px" fill="#1e1e1e" text-anchor="middle" style="white-space: pre;" direction="ltr" dominant-baseline="alphabetic">OrdersRepository</text></g><g stroke-linecap="round"><g transform="translate(1394.4492178299756 1916.394159568753) rotate(0 1.6666666666666856 43.33333333333326)"><path d="M-0.58 -0.02 C-0.4 14.46, 1.59 72.29, 2.15 86.78 M1.32 -1.08 C1.75 13.63, 4.17 73.46, 4.24 88.38" stroke="#1e1e1e" stroke-width="2" fill="none"></path></g><g transform="translate(1394.4492178299756 1916.394159568753) rotate(0 1.6666666666666856 43.33333333333326)"><path d="M-4.9 65.11 C-1.41 72.25, 2.39 82.38, 4.24 88.38 M-4.9 65.11 C-3.09 72.58, 1.14 81.08, 4.24 88.38" stroke="#1e1e1e" stroke-width="2" fill="none"></path></g><g transform="translate(1394.4492178299756 1916.394159568753) rotate(0 1.6666666666666856 43.33333333333326)"><path d="M12.2 64.68 C9.03 71.91, 6.16 82.2, 4.24 88.38 M12.2 64.68 C8.46 72.27, 7.15 80.92, 4.24 88.38" stroke="#1e1e1e" stroke-width="2" fill="none"></path></g></g><mask></mask><g stroke-linecap="round" transform="translate(1755.6992178299756 1843.0608262354185) rotate(0 166.25 42.5)"><path d="M21.25 0 C115.5 -1.45, 208.32 -0.84, 311.25 0 M21.25 0 C110.96 0.9, 201.37 0.28, 311.25 0 M311.25 0 C324.05 1.46, 331.65 7.29, 332.5 21.25 M311.25 0 C326.27 0.55, 332.42 9.05, 332.5 21.25 M332.5 21.25 C331.48 34.18, 334.44 43.03, 332.5 63.75 M332.5 21.25 C331.59 36.52, 333.29 49.23, 332.5 63.75 M332.5 63.75 C332.17 79.07, 326.3 86.32, 311.25 85 M332.5 63.75 C333.69 77.64, 324.79 84.7, 311.25 85 M311.25 85 C238.31 84.93, 168.47 82.98, 21.25 85 M311.25 85 C205.35 83.45, 98.75 84.35, 21.25 85 M21.25 85 C5.49 86.98, 0.73 78.83, 0 63.75 M21.25 85 C5.19 83.35, 0.62 77.85, 0 63.75 M0 63.75 C-0.29 54.59, 0.81 42.65, 0 21.25 M0 63.75 C0.22 51.6, -0.09 39.87, 0 21.25 M0 21.25 C-0.3 8.41, 8.85 1.51, 21.25 0 M0 21.25 C2.02 6.91, 6.93 -1.08, 21.25 0" stroke="#e03131" stroke-width="2" fill="none"></path></g><g transform="translate(1800.0193243363233 1860.5608262354185) rotate(0 121.92989349365234 25)"><text x="121.92989349365234" y="17.52" font-family="Virgil, Segoe UI Emoji" font-size="20px" fill="#e03131" text-anchor="middle" style="white-space: pre;" direction="ltr" dominant-baseline="alphabetic">Rerturm error on console</text><text x="121.92989349365234" y="42.519999999999996" font-family="Virgil, Segoe UI Emoji" font-size="20px" fill="#e03131" text-anchor="middle" style="white-space: pre;" direction="ltr" dominant-baseline="alphabetic">STOP</text></g><g stroke-linecap="round" transform="translate(481.6709187765284 3550.370761239135) rotate(0 166.25 30.5)"><path d="M15.25 0 C95.87 -0.81, 174.56 0.15, 317.25 0 M15.25 0 C96.35 -0.13, 177.55 -0.59, 317.25 0 M317.25 0 C325.73 1.12, 331.71 4.04, 332.5 15.25 M317.25 0 C327.32 1.72, 333.33 7.2, 332.5 15.25 M332.5 15.25 C334.47 24.93, 332.65 34.68, 332.5 45.75 M332.5 15.25 C331.73 21.34, 332.95 28.39, 332.5 45.75 M332.5 45.75 C330.92 55.68, 327.4 62.63, 317.25 61 M332.5 45.75 C334.66 53.82, 326.38 62.9, 317.25 61 M317.25 61 C246.48 61.53, 172.49 60.64, 15.25 61 M317.25 61 C253.86 58.98, 191.46 59.14, 15.25 61 M15.25 61 C6.89 59.71, 1.12 57.39, 0 45.75 M15.25 61 C5.81 61.97, -0.07 57.4, 0 45.75 M0 45.75 C-1.15 37.51, -1.15 29.79, 0 15.25 M0 45.75 C0.6 38.04, -1.13 31.51, 0 15.25 M0 15.25 C-1.43 5.95, 6.85 1.45, 15.25 0 M0 15.25 C-0.41 3.05, 5.5 -1.21, 15.25 0" stroke="#1e1e1e" stroke-width="2" fill="none"></path></g><g transform="translate(521.9710133810206 3568.370761239135) rotate(0 125.94990539550781 12.5)"><text x="125.94990539550781" y="17.52" font-family="Virgil, Segoe UI Emoji" font-size="20px" fill="#1e1e1e" text-anchor="middle" style="white-space: pre;" direction="ltr" dominant-baseline="alphabetic">Sum last + current total</text></g><g stroke-linecap="round"><g transform="translate(639.3409170430534 3612.370761239135) rotate(0 -1.3123706327864966 58.72858581720175)"><path d="M-0.41 0.89 C-0.99 20.39, -2.97 96.98, -3.25 116.54 M1.58 0.32 C1.37 19.98, -0.17 98.27, -0.86 117.59" stroke="#1e1e1e" stroke-width="2" fill="none"></path></g><g transform="translate(639.3409170430534 3612.370761239135) rotate(0 -1.3123706327864966 58.72858581720175)"><path d="M-8.79 93.88 C-4.85 100.45, -5.34 110, -0.86 117.59 M-8.79 93.88 C-6.5 103.16, -3.4 110.31, -0.86 117.59" stroke="#1e1e1e" stroke-width="2" fill="none"></path></g><g transform="translate(639.3409170430534 3612.370761239135) rotate(0 -1.3123706327864966 58.72858581720175)"><path d="M8.3 94.33 C6.78 100.7, 0.83 110.11, -0.86 117.59 M8.3 94.33 C4.39 103.55, 1.29 110.54, -0.86 117.59" stroke="#1e1e1e" stroke-width="2" fill="none"></path></g></g><mask></mask><g stroke-linecap="round" transform="translate(468.59896754455417 3728.813953440808) rotate(0 166.25 30.5)"><path d="M15.25 0 C101.55 1.87, 190.04 2.03, 317.25 0 M15.25 0 C116.5 -0.2, 217.38 -1.38, 317.25 0 M317.25 0 C328.46 -1.44, 332.99 6.93, 332.5 15.25 M317.25 0 C329.58 2.1, 334.62 6.63, 332.5 15.25 M332.5 15.25 C332.68 26.05, 332.69 37.09, 332.5 45.75 M332.5 15.25 C332.07 28.34, 333.34 40.45, 332.5 45.75 M332.5 45.75 C331.69 55.25, 329.2 60.66, 317.25 61 M332.5 45.75 C333.33 54.56, 327.15 62.57, 317.25 61 M317.25 61 C255.79 61.94, 192.76 61.69, 15.25 61 M317.25 61 C249.83 62.53, 182.93 63.11, 15.25 61 M15.25 61 C3.67 60.63, -0.03 54.59, 0 45.75 M15.25 61 C3.04 61.94, 0.2 55.26, 0 45.75 M0 45.75 C-0.55 31.74, -0.01 21.56, 0 15.25 M0 45.75 C-0.03 36.02, -0.8 25.41, 0 15.25 M0 15.25 C1.95 6.64, 4.8 -0.9, 15.25 0 M0 15.25 C-1.93 7.25, 6.92 1.27, 15.25 0" stroke="#1e1e1e" stroke-width="2" fill="none"></path></g><g transform="translate(541.869055740355 3746.813953440808) rotate(0 92.97991180419922 12.5)"><text x="92.97991180419922" y="17.52" font-family="Virgil, Segoe UI Emoji" font-size="20px" fill="#1e1e1e" text-anchor="middle" style="white-space: pre;" direction="ltr" dominant-baseline="alphabetic">.Save(orderTotals)</text></g><g stroke-linecap="round" transform="translate(947.3047025249089 2330.161098180711) rotate(0 157.8137032584798 30.86393458560667)"><path d="M15.43 0 C77.18 -3.45, 136 1.22, 300.2 0 C310.77 2.62, 316.66 1.76, 315.63 15.43 C314.68 25.12, 313.17 27.98, 315.63 46.3 C316.85 56.56, 308.41 64.18, 300.2 61.73 C239.47 64, 182.46 61.02, 15.43 61.73 C6.19 58.9, -2.15 57.77, 0 46.3 C2.64 37.17, 0.82 25.78, 0 15.43 C1.27 6.56, 2.21 0.33, 15.43 0" stroke="none" stroke-width="0" fill="#ffc9c9"></path><path d="M15.43 0 C105.82 1.07, 195.3 -0.51, 300.2 0 M300.2 0 C309.16 -0.51, 317.5 3.92, 315.63 15.43 M315.63 15.43 C317.11 24.11, 313.63 36.29, 315.63 46.3 M315.63 46.3 C316.52 57.27, 310.16 60.25, 300.2 61.73 M300.2 61.73 C226.06 59.71, 151.74 60.5, 15.43 61.73 M15.43 61.73 C4.66 61.32, 0.92 55, 0 46.3 M0 46.3 C-1.6 34.93, -1.49 22.23, 0 15.43 M0 15.43 C1.23 6.21, 6.91 -0.04, 15.43 0" stroke="#1e1e1e" stroke-width="2.5" fill="none" stroke-dasharray="8 10"></path></g><g transform="translate(1016.6684774996972 2348.5250327663175) rotate(0 88.4499282836914 12.5)"><text x="88.4499282836914" y="17.52" font-family="Virgil, Segoe UI Emoji" font-size="20px" fill="#1e1e1e" text-anchor="middle" style="white-space: pre;" direction="ltr" dominant-baseline="alphabetic">Open transaction?</text></g><g stroke-linecap="round" transform="translate(1046.3012367388865 2786.561302206744) rotate(0 90.625 78.75)"><path d="M113.75 19.75 C126.37 34.23, 143.75 46.11, 158.5 59.25 M113.75 19.75 C122.1 29.02, 131.48 37.44, 158.5 59.25 M158.5 59.25 C181.24 77.51, 183.09 78.86, 158.5 98.75 M158.5 59.25 C181.66 77.88, 179.58 77.47, 158.5 98.75 M158.5 98.75 C139.86 113.07, 125.17 129, 113.75 137.75 M158.5 98.75 C140.49 114.25, 123.17 129.65, 113.75 137.75 M113.75 137.75 C92.92 157.29, 90.66 159.12, 68.25 137.75 M113.75 137.75 C91.97 156.36, 93.29 156.06, 68.25 137.75 M68.25 137.75 C50.51 124.71, 35.51 108.77, 22.75 98.75 M68.25 137.75 C57.59 128.11, 45.98 117.07, 22.75 98.75 M22.75 98.75 C-1.49 80.89, 0.44 78.62, 22.75 59.25 M22.75 98.75 C-1.54 78.75, 0.34 80.41, 22.75 59.25 M22.75 59.25 C34.85 49.48, 46.9 39.18, 68.25 19.75 M22.75 59.25 C38.08 46.42, 53.19 34.52, 68.25 19.75 M68.25 19.75 C90.31 -1.89, 92.16 -1.87, 113.75 19.75 M68.25 19.75 C90.93 2.16, 91.49 -2.03, 113.75 19.75" stroke="#1e1e1e" stroke-width="2" fill="none"></path></g><g transform="translate(1096.9737678668162 2840.436302206744) rotate(0 40.13996887207031 25)"><text x="40.13996887207031" y="17.52" font-family="Virgil, Segoe UI Emoji" font-size="20px" fill="#1e1e1e" text-anchor="middle" style="white-space: pre;" direction="ltr" dominant-baseline="alphabetic">An error</text><text x="40.13996887207031" y="42.519999999999996" font-family="Virgil, Segoe UI Emoji" font-size="20px" fill="#1e1e1e" text-anchor="middle" style="white-space: pre;" direction="ltr" dominant-baseline="alphabetic">ocurred</text></g><g mask="url(#mask-ppJwTuCTiDgMfe-QfIFXG)" stroke-linecap="round"><g transform="translate(1221.1292802269813 2899.1582338300377) rotate(0 114.27265455127944 62.82716297623688)"><path d="M0.7 -1.09 C38.47 19.49, 189.83 103.37, 227.66 124.62 M-0.39 0.96 C37.67 22.15, 191.48 105.03, 229.9 125.61" stroke="#1e1e1e" stroke-width="2" fill="none"></path></g><g transform="translate(1221.1292802269813 2899.1582338300377) rotate(0 114.27265455127944 62.82716297623688)"><path d="M205.16 122.02 C212.89 121.77, 222.48 123.18, 229.9 125.61 M205.16 122.02 C214.08 122.38, 223.95 124.36, 229.9 125.61" stroke="#1e1e1e" stroke-width="2" fill="none"></path></g><g transform="translate(1221.1292802269813 2899.1582338300377) rotate(0 114.27265455127944 62.82716297623688)"><path d="M213.26 106.96 C218.02 112.54, 224.5 119.74, 229.9 125.61 M213.26 106.96 C219.14 112.83, 226.09 120.26, 229.9 125.61" stroke="#1e1e1e" stroke-width="2" fill="none"></path></g></g><mask id="mask-ppJwTuCTiDgMfe-QfIFXG"><rect x="0" y="0" fill="#fff" width="1549.6745893295401" height="3124.8125597825115"></rect><rect x="1317.4219466801162" y="2949.485396806275" fill="#000" width="35.95997619628906" height="25" opacity="1"></rect></mask><g transform="translate(1317.4219466801164 2949.4853968062753) rotate(0 18.46214918697251 11.936105666299909)"><text x="17.97998809814453" y="17.52" font-family="Virgil, Segoe UI Emoji" font-size="20px" fill="#1e1e1e" text-anchor="middle" style="white-space: pre;" direction="ltr" dominant-baseline="alphabetic">YES</text></g><g mask="url(#mask-JH6BG5LRK6EjgrBfB1T0L)" stroke-linecap="round"><g transform="translate(1083.805129312368 2911.650997355373) rotate(0 -95.14145228721276 55.54683510853329)"><path d="M-0.87 0.74 C-32.58 19.58, -159.57 93.77, -191.14 112.01 M0.87 0.08 C-30.39 18.69, -156.89 91.88, -188.88 110.37" stroke="#1e1e1e" stroke-width="2" fill="none"></path></g><g transform="translate(1083.805129312368 2911.650997355373) rotate(0 -95.14145228721276 55.54683510853329)"><path d="M-172.83 91.2 C-175.39 93.98, -178.72 99.73, -188.88 110.37 M-172.83 91.2 C-176.09 95.02, -180.62 99.17, -188.88 110.37" stroke="#1e1e1e" stroke-width="2" fill="none"></path></g><g transform="translate(1083.805129312368 2911.650997355373) rotate(0 -95.14145228721276 55.54683510853329)"><path d="M-164.27 106 C-168.63 105.38, -173.9 107.78, -188.88 110.37 M-164.27 106 C-169.6 106.48, -176.05 107.29, -188.88 110.37" stroke="#1e1e1e" stroke-width="2" fill="none"></path></g></g><mask id="mask-JH6BG5LRK6EjgrBfB1T0L"><rect x="0" y="0" fill="#fff" width="1374.0880338867937" height="3122.7446675724395"></rect><rect x="974.9636877063077" y="2954.6978324639063" fill="#000" width="27.399978637695312" height="25" opacity="1"></rect></mask><g transform="translate(974.9636877063078 2954.6978324639063) rotate(0 13.704823089847253 13.000959925791221)"><text x="13.699989318847656" y="17.52" font-family="Virgil, Segoe UI Emoji" font-size="20px" fill="#1e1e1e" text-anchor="middle" style="white-space: pre;" direction="ltr" dominant-baseline="alphabetic">NO</text></g><g stroke-linecap="round" transform="translate(974.9842510736493 2664.1008539278446) rotate(0 166.25 25.277563688814325)"><path d="M12.64 0 C97.66 0.98, 185.76 -1.37, 319.86 0 M12.64 0 C107.19 -0.97, 200.41 -1.18, 319.86 0 M319.86 0 C329.15 -0.75, 331.34 5.25, 332.5 12.64 M319.86 0 C330.49 1.73, 332.77 3.92, 332.5 12.64 M332.5 12.64 C333.28 21.41, 333.68 32.26, 332.5 37.92 M332.5 12.64 C332.49 19.67, 332.99 25.38, 332.5 37.92 M332.5 37.92 C333.23 46.81, 327.25 50.2, 319.86 50.56 M332.5 37.92 C331.47 47.54, 327.25 52.47, 319.86 50.56 M319.86 50.56 C210.57 50.41, 99.82 48.61, 12.64 50.56 M319.86 50.56 C254.58 50.81, 189.88 50.62, 12.64 50.56 M12.64 50.56 C3.66 51.79, 0.57 47.82, 0 37.92 M12.64 50.56 C3.37 50.43, -1.93 45.52, 0 37.92 M0 37.92 C-0.69 26.39, 0.9 17.05, 0 12.64 M0 37.92 C-0.46 31.63, 0.59 27.06, 0 12.64 M0 12.64 C1.68 4.83, 4.25 0.33, 12.64 0 M0 12.64 C0.18 4.04, 5.05 1.99, 12.64 0" stroke="#1e1e1e" stroke-width="2" fill="none"></path></g><g transform="translate(1079.524313024333 2676.878417616659) rotate(0 61.709938049316406 12.5)"><text x="61.709938049316406" y="17.52" font-family="Virgil, Segoe UI Emoji" font-size="20px" fill="#1e1e1e" text-anchor="middle" style="white-space: pre;" direction="ltr" dominant-baseline="alphabetic">Save(orders)</text></g><g stroke-linecap="round"><g transform="translate(1146.5070713084954 2565.4671420977747) rotate(0 0.32955126467788887 47.4553821136152)"><path d="M-1.07 0.25 C-1.08 16, -0.1 79.29, 0.13 95.11 M0.56 -0.67 C0.33 14.65, -0.89 76.88, -1.1 93.1" stroke="#1e1e1e" stroke-width="2" fill="none"></path></g><g transform="translate(1146.5070713084954 2565.4671420977747) rotate(0 0.32955126467788887 47.4553821136152)"><path d="M-9.26 69.47 C-6.16 76.09, -3.67 83.81, -1.1 93.1 M-9.26 69.47 C-6.45 77.21, -4.31 85.08, -1.1 93.1" stroke="#1e1e1e" stroke-width="2" fill="none"></path></g><g transform="translate(1146.5070713084954 2565.4671420977747) rotate(0 0.32955126467788887 47.4553821136152)"><path d="M7.84 69.75 C5.56 76.13, 2.67 83.76, -1.1 93.1 M7.84 69.75 C5.15 77.52, 1.79 85.3, -1.1 93.1" stroke="#1e1e1e" stroke-width="2" fill="none"></path></g></g><mask></mask><g stroke-linecap="round"><g transform="translate(1141.2342510736494 2715.083416261534) rotate(0 0 37.56884417327865)"><path d="M1.16 -0.39 C1.16 12.12, -0.68 62.15, -0.74 74.86 M0.31 -1.65 C0.77 11.07, 1.55 63.66, 1.59 76.26" stroke="#1e1e1e" stroke-width="2" fill="none"></path></g><g transform="translate(1141.2342510736494 2715.083416261534) rotate(0 0 37.56884417327865)"><path d="M-7.2 52.85 C-5.81 57.1, -3.53 65.3, 1.59 76.26 M-7.2 52.85 C-3.79 61.32, -1.4 70.2, 1.59 76.26" stroke="#1e1e1e" stroke-width="2" fill="none"></path></g><g transform="translate(1141.2342510736494 2715.083416261534) rotate(0 0 37.56884417327865)"><path d="M9.9 52.68 C7.23 57.13, 5.45 65.37, 1.59 76.26 M9.9 52.68 C7.14 61.21, 3.36 70.16, 1.59 76.26" stroke="#1e1e1e" stroke-width="2" fill="none"></path></g></g><mask></mask><g stroke-linecap="round" transform="translate(1347.2604322100954 3029.856168777667) rotate(0 166.25 42.5)"><path d="M21.25 0 C90.69 -2.96, 160.7 -2.78, 311.25 0 M21.25 0 C90.76 -1.72, 158.66 -1.32, 311.25 0 M311.25 0 C324.04 -0.05, 331.45 8.33, 332.5 21.25 M311.25 0 C327.35 -2.14, 330.42 7.76, 332.5 21.25 M332.5 21.25 C330.92 38.89, 331.14 55.56, 332.5 63.75 M332.5 21.25 C331.78 31.08, 332.11 42.83, 332.5 63.75 M332.5 63.75 C331.53 76.84, 327.09 86.69, 311.25 85 M332.5 63.75 C333.78 78.76, 323.28 85.31, 311.25 85 M311.25 85 C242.76 85.8, 174.66 85.4, 21.25 85 M311.25 85 C212.44 84.72, 115.36 84.62, 21.25 85 M21.25 85 C6.82 86.62, -1.97 76.35, 0 63.75 M21.25 85 C7.35 85.8, 1.85 76.56, 0 63.75 M0 63.75 C0.52 51.08, -1.73 39.43, 0 21.25 M0 63.75 C0.15 50.24, -0.44 35.83, 0 21.25 M0 21.25 C-1.86 6.65, 8.83 -0.93, 21.25 0 M0 21.25 C-1.41 5.95, 4.8 2.24, 21.25 0" stroke="#e03131" stroke-width="2" fill="none"></path></g><g transform="translate(1391.580538716443 3047.356168777667) rotate(0 121.92989349365234 25)"><text x="121.92989349365234" y="17.52" font-family="Virgil, Segoe UI Emoji" font-size="20px" fill="#e03131" text-anchor="middle" style="white-space: pre;" direction="ltr" dominant-baseline="alphabetic">Rerturm error on console</text><text x="121.92989349365234" y="42.519999999999996" font-family="Virgil, Segoe UI Emoji" font-size="20px" fill="#e03131" text-anchor="middle" style="white-space: pre;" direction="ltr" dominant-baseline="alphabetic">STOP</text></g><g stroke-linecap="round" transform="translate(551.1966451154492 3863.24299829879) rotate(0 90.625 85)"><path d="M113.75 21.5 C125.89 36.12, 143.23 49.34, 158.5 64.5 M113.75 21.5 C122.83 30.42, 133.62 40.83, 158.5 64.5 M158.5 64.5 C180.8 84.25, 179.33 87.69, 158.5 107.5 M158.5 64.5 C178.97 88.26, 179.6 85.3, 158.5 107.5 M158.5 107.5 C148.69 118.73, 135.56 128.2, 113.75 148.5 M158.5 107.5 C147.46 117.51, 136.03 127.83, 113.75 148.5 M113.75 148.5 C90.7 170.58, 90.96 168.38, 68.25 148.5 M113.75 148.5 C91.24 167.95, 89.98 171.84, 68.25 148.5 M68.25 148.5 C51.42 136.37, 38.9 120.77, 22.75 107.5 M68.25 148.5 C59.4 139.93, 49.86 131.9, 22.75 107.5 M22.75 107.5 C0.2 84.31, 1 86.45, 22.75 64.5 M22.75 107.5 C2.05 86.76, -0.31 85.51, 22.75 64.5 M22.75 64.5 C36.06 49.46, 53.44 37.55, 68.25 21.5 M22.75 64.5 C36.04 52.78, 49.06 39.51, 68.25 21.5 M68.25 21.5 C89.54 -0.15, 91.58 -0.14, 113.75 21.5 M68.25 21.5 C90.63 0.09, 91.69 0.25, 113.75 21.5" stroke="#1e1e1e" stroke-width="2" fill="none"></path></g><g transform="translate(601.8691762433789 3910.74299829879) rotate(0 40.13996887207031 37.5)"><text x="40.13996887207031" y="17.52" font-family="Virgil, Segoe UI Emoji" font-size="20px" fill="#1e1e1e" text-anchor="middle" style="white-space: pre;" direction="ltr" dominant-baseline="alphabetic">An error</text><text x="40.13996887207031" y="42.519999999999996" font-family="Virgil, Segoe UI Emoji" font-size="20px" fill="#1e1e1e" text-anchor="middle" style="white-space: pre;" direction="ltr" dominant-baseline="alphabetic">ocurred</text><text x="40.13996887207031" y="67.52" font-family="Virgil, Segoe UI Emoji" font-size="20px" fill="#1e1e1e" text-anchor="middle" style="white-space: pre;" direction="ltr" dominant-baseline="alphabetic">?</text></g><g mask="url(#mask-nm3zVwmGeTHwyY6DQnIv0)" stroke-linecap="round"><g transform="translate(726.024688603544 3975.8399299220832) rotate(0 114.27265455127946 62.82716297623688)"><path d="M0.59 -1.05 C38.55 19.62, 190.47 104.1, 228.39 125.13 M-0.56 1.01 C37.17 22.36, 189.41 105.53, 227.36 126.39" stroke="#1e1e1e" stroke-width="2" fill="none"></path></g><g transform="translate(726.024688603544 3975.8399299220832) rotate(0 114.27265455127946 62.82716297623688)"><path d="M202.64 122.6 C209.64 123.55, 219.24 124.41, 227.36 126.39 M202.64 122.6 C208.84 122.49, 214.48 125.19, 227.36 126.39" stroke="#1e1e1e" stroke-width="2" fill="none"></path></g><g transform="translate(726.024688603544 3975.8399299220832) rotate(0 114.27265455127946 62.82716297623688)"><path d="M210.86 107.6 C215.1 113.88, 221.79 120.03, 227.36 126.39 M210.86 107.6 C215.07 111.44, 218.59 118.01, 227.36 126.39" stroke="#1e1e1e" stroke-width="2" fill="none"></path></g></g><mask id="mask-nm3zVwmGeTHwyY6DQnIv0"><rect x="0" y="0" fill="#fff" width="1054.5699977061029" height="4201.494255874557"></rect><rect x="822.3173550566789" y="4026.1670928983194" fill="#000" width="35.95997619628906" height="25" opacity="1"></rect></mask><g transform="translate(822.3173550566789 4026.1670928983203) rotate(0 17.619595419922746 12.344677710226051)"><text x="17.97998809814453" y="17.52" font-family="Virgil, Segoe UI Emoji" font-size="20px" fill="#1e1e1e" text-anchor="middle" style="white-space: pre;" direction="ltr" dominant-baseline="alphabetic">YES</text></g><g mask="url(#mask-gKo_2daGhp1t_5YYowQgv)" stroke-linecap="round"><g transform="translate(587.3735752745849 3993.846850011127) rotate(0 -89.3537751874901 60.64474416250755)"><path d="M-0.45 -0.5 C-30.02 19.97, -147.87 102.2, -177.62 122.32 M1.52 -1.81 C-28.11 18.4, -147.76 100.28, -178 120.75" stroke="#1e1e1e" stroke-width="2" fill="none"></path></g><g transform="translate(587.3735752745849 3993.846850011127) rotate(0 -89.3537751874901 60.64474416250755)"><path d="M-163.4 100.45 C-168.51 108.03, -170.13 111.59, -178 120.75 M-163.4 100.45 C-167.68 105.87, -170.51 108.89, -178 120.75" stroke="#1e1e1e" stroke-width="2" fill="none"></path></g><g transform="translate(587.3735752745849 3993.846850011127) rotate(0 -89.3537751874901 60.64474416250755)"><path d="M-153.77 114.59 C-161.58 118.07, -165.97 117.58, -178 120.75 M-153.77 114.59 C-159.96 117.08, -164.84 117.1, -178 120.75" stroke="#1e1e1e" stroke-width="2" fill="none"></path></g></g><mask id="mask-gKo_2daGhp1t_5YYowQgv"><rect x="0" y="0" fill="#fff" width="866.0811256495651" height="4215.136338336142"></rect><rect x="484.3198107682472" y="4041.9915941736344" fill="#000" width="27.399978637695312" height="25" opacity="1"></rect></mask><g transform="translate(484.3198107682472 4041.9915941736344) rotate(0 14.814623020831505 12.11298893897765)"><text x="13.699989318847656" y="17.52" font-family="Virgil, Segoe UI Emoji" font-size="20px" fill="#1e1e1e" text-anchor="middle" style="white-space: pre;" direction="ltr" dominant-baseline="alphabetic">NO</text></g><g stroke-linecap="round"><g transform="translate(637.931455254743 3798.0938955701904) rotate(0 0.14347533823263348 34.85271189248692)"><path d="M1.02 0.25 C1.11 11.98, 1.23 57.65, 1.04 69.29 M0.09 -0.67 C0.05 11.32, 0.69 59.18, 0.49 70.61" stroke="#1e1e1e" stroke-width="2" fill="none"></path></g><g transform="translate(637.931455254743 3798.0938955701904) rotate(0 0.14347533823263348 34.85271189248692)"><path d="M-8.07 47.12 C-4.95 56.32, -3.14 62.39, 0.49 70.61 M-8.07 47.12 C-5.92 54.28, -3.11 63.02, 0.49 70.61" stroke="#1e1e1e" stroke-width="2" fill="none"></path></g><g transform="translate(637.931455254743 3798.0938955701904) rotate(0 0.14347533823263348 34.85271189248692)"><path d="M9.03 47.11 C6.32 56.46, 2.3 62.53, 0.49 70.61 M9.03 47.11 C5.54 54.14, 2.71 62.88, 0.49 70.61" stroke="#1e1e1e" stroke-width="2" fill="none"></path></g></g><mask></mask><g stroke-linecap="round" transform="translate(833.4765062650397 4104.871147575005) rotate(0 166.25 42.5)"><path d="M21.25 0 C128.43 -1.29, 238.77 0.78, 311.25 0 M21.25 0 C120.64 -0.9, 219.52 -0.03, 311.25 0 M311.25 0 C324.24 -1.11, 332.61 7.21, 332.5 21.25 M311.25 0 C326.31 -2.09, 332.09 6.14, 332.5 21.25 M332.5 21.25 C331.14 34.47, 331.93 45.3, 332.5 63.75 M332.5 21.25 C331.79 36.71, 331.85 49.99, 332.5 63.75 M332.5 63.75 C333.02 76.38, 326.44 84.14, 311.25 85 M332.5 63.75 C330.43 79, 325.07 84.8, 311.25 85 M311.25 85 C243.83 83.91, 176.8 83.77, 21.25 85 M311.25 85 C221.65 84.1, 132.41 84.6, 21.25 85 M21.25 85 C5.76 84.27, -1.39 79.83, 0 63.75 M21.25 85 C8.27 84.64, 1.73 78.25, 0 63.75 M0 63.75 C0.71 50.24, -1.52 35.45, 0 21.25 M0 63.75 C0.02 51.18, 0.44 39.45, 0 21.25 M0 21.25 C-1.93 8.82, 8.99 0.02, 21.25 0 M0 21.25 C-1.99 7.59, 6.71 -1.85, 21.25 0" stroke="#e03131" stroke-width="2" fill="none"></path></g><g transform="translate(870.2266130765631 4109.871147575005) rotate(0 129.49989318847656 37.5)"><text x="129.49989318847656" y="17.52" font-family="Virgil, Segoe UI Emoji" font-size="20px" fill="#e03131" text-anchor="middle" style="white-space: pre;" direction="ltr" dominant-baseline="alphabetic">Rerturm error on console, </text><text x="129.49989318847656" y="42.519999999999996" font-family="Virgil, Segoe UI Emoji" font-size="20px" fill="#e03131" text-anchor="middle" style="white-space: pre;" direction="ltr" dominant-baseline="alphabetic">rollback and</text><text x="129.49989318847656" y="67.52" font-family="Virgil, Segoe UI Emoji" font-size="20px" fill="#e03131" text-anchor="middle" style="white-space: pre;" direction="ltr" dominant-baseline="alphabetic">STOP</text></g><g stroke-linecap="round" transform="translate(223.02979183812954 4119.556397051957) rotate(0 166.25 30.5)"><path d="M15.25 0 C119.62 -2.31, 223.56 -0.88, 317.25 0 M15.25 0 C92.97 -1.65, 170.02 -1.26, 317.25 0 M317.25 0 C329.06 0.65, 334.42 6.98, 332.5 15.25 M317.25 0 C327.61 -1.96, 332.86 4.57, 332.5 15.25 M332.5 15.25 C331.93 26.15, 332.86 32.73, 332.5 45.75 M332.5 15.25 C332.97 24.12, 332.17 32.37, 332.5 45.75 M332.5 45.75 C334.27 56.95, 327.69 62.27, 317.25 61 M332.5 45.75 C334.61 56.88, 326.93 58.8, 317.25 61 M317.25 61 C253.59 61.75, 187.06 63.3, 15.25 61 M317.25 61 C211.26 63.79, 104.07 63.29, 15.25 61 M15.25 61 C6.17 59.98, -1.56 57.72, 0 45.75 M15.25 61 C3.65 61.68, -1.98 55.25, 0 45.75 M0 45.75 C-0.35 36.6, 1.59 23.94, 0 15.25 M0 45.75 C0.88 39.46, -0.88 33.54, 0 15.25 M0 15.25 C0.88 4.05, 6.31 1.54, 15.25 0 M0 15.25 C-1.66 3.79, 5.3 -0.22, 15.25 0" stroke="#1e1e1e" stroke-width="2" fill="none"></path></g><g transform="translate(289.0799017014108 4137.556397051957) rotate(0 100.19989013671875 12.5)"><text x="100.19989013671875" y="17.52" font-family="Virgil, Segoe UI Emoji" font-size="20px" fill="#1e1e1e" text-anchor="middle" style="white-space: pre;" direction="ltr" dominant-baseline="alphabetic">FileSystemRepository</text></g><g stroke-linecap="round"><g transform="translate(379.43387708930845 4186.75480657029) rotate(0 -0.44754157949182627 46.096782687662426)"><path d="M0.99 -0.61 C0.95 14.76, -0.6 78.02, -0.87 93.35 M0.05 1.69 C-0.1 17.26, -1.58 76.73, -1.8 91.84" stroke="#1e1e1e" stroke-width="2" fill="none"></path></g><g transform="translate(379.43387708930845 4186.75480657029) rotate(0 -0.44754157949182627 46.096782687662426)"><path d="M-9.88 68.18 C-8.65 74.05, -3.69 80.34, -1.8 91.84 M-9.88 68.18 C-7.69 74.24, -5.95 80.25, -1.8 91.84" stroke="#1e1e1e" stroke-width="2" fill="none"></path></g><g transform="translate(379.43387708930845 4186.75480657029) rotate(0 -0.44754157949182627 46.096782687662426)"><path d="M7.22 68.52 C4.19 74.45, 4.88 80.65, -1.8 91.84 M7.22 68.52 C5.39 74.34, 3.12 80.27, -1.8 91.84" stroke="#1e1e1e" stroke-width="2" fill="none"></path></g></g><mask></mask><g stroke-linecap="round" transform="translate(205.1281286584549 4288.727114099884) rotate(0 166.25 30.5)"><path d="M15.25 0 C108.68 1.53, 200.03 1.24, 317.25 0 M15.25 0 C130.63 -0.89, 245.37 -0.46, 317.25 0 M317.25 0 C325.94 1.34, 333.53 6.49, 332.5 15.25 M317.25 0 C326.68 -0.94, 332.5 5.28, 332.5 15.25 M332.5 15.25 C330.66 25.15, 332 34.72, 332.5 45.75 M332.5 15.25 C333.2 25.92, 332.34 37.28, 332.5 45.75 M332.5 45.75 C332.71 57.32, 326.4 61.34, 317.25 61 M332.5 45.75 C331.73 54.98, 329.04 62.64, 317.25 61 M317.25 61 C238.1 60.65, 158.56 61.81, 15.25 61 M317.25 61 C211.51 60.78, 104.62 60.58, 15.25 61 M15.25 61 C3.09 59.33, 1.16 55.47, 0 45.75 M15.25 61 C4.07 61.71, -1.43 54.72, 0 45.75 M0 45.75 C-2.23 35.28, -1.39 22.9, 0 15.25 M0 45.75 C-0.19 39.25, -0.95 32.79, 0 15.25 M0 15.25 C-0.76 4.68, 6.55 0.34, 15.25 0 M0 15.25 C1.02 5, 2.95 -0.38, 15.25 0" stroke="#1e1e1e" stroke-width="2" fill="none"></path></g><g transform="translate(243.48825133911896 4306.727114099884) rotate(0 127.88987731933594 12.5)"><text x="127.88987731933594" y="17.52" font-family="Virgil, Segoe UI Emoji" font-size="20px" fill="#1e1e1e" text-anchor="middle" style="white-space: pre;" direction="ltr" dominant-baseline="alphabetic">save(orders, orderTotals)</text></g><g stroke-linecap="round" transform="translate(284.33346129438996 4420.404411168502) rotate(0 90.625 85)"><path d="M113.75 21.5 C126.45 30.73, 135.58 42.08, 158.5 64.5 M113.75 21.5 C129.77 38.54, 146.25 54.6, 158.5 64.5 M158.5 64.5 C182.82 87.29, 181.7 87.85, 158.5 107.5 M158.5 64.5 C179.73 85.45, 179.47 84.71, 158.5 107.5 M158.5 107.5 C144.47 118.28, 133.28 130.64, 113.75 148.5 M158.5 107.5 C141.19 124.53, 122.56 140.59, 113.75 148.5 M113.75 148.5 C91.41 171.38, 90.66 171.42, 68.25 148.5 M113.75 148.5 C89.19 170.02, 92.56 171.35, 68.25 148.5 M68.25 148.5 C51.83 133.84, 36.98 121.88, 22.75 107.5 M68.25 148.5 C50.7 133.42, 33.65 117.56, 22.75 107.5 M22.75 107.5 C1.93 86.92, 0.86 87.44, 22.75 64.5 M22.75 107.5 C0.06 86.82, 0.59 85.05, 22.75 64.5 M22.75 64.5 C31.17 53.54, 41.06 45.29, 68.25 21.5 M22.75 64.5 C36.43 51.28, 49.93 39.23, 68.25 21.5 M68.25 21.5 C92.32 -0.15, 89.03 0.21, 113.75 21.5 M68.25 21.5 C90.54 -0.11, 90.27 -1.28, 113.75 21.5" stroke="#1e1e1e" stroke-width="2" fill="none"></path></g><g transform="translate(335.00599242231965 4467.904411168502) rotate(0 40.13996887207031 37.5)"><text x="40.13996887207031" y="17.52" font-family="Virgil, Segoe UI Emoji" font-size="20px" fill="#1e1e1e" text-anchor="middle" style="white-space: pre;" direction="ltr" dominant-baseline="alphabetic">An error</text><text x="40.13996887207031" y="42.519999999999996" font-family="Virgil, Segoe UI Emoji" font-size="20px" fill="#1e1e1e" text-anchor="middle" style="white-space: pre;" direction="ltr" dominant-baseline="alphabetic">ocurred</text><text x="40.13996887207031" y="67.52" font-family="Virgil, Segoe UI Emoji" font-size="20px" fill="#1e1e1e" text-anchor="middle" style="white-space: pre;" direction="ltr" dominant-baseline="alphabetic">?</text></g><g stroke-linecap="round"><g transform="translate(380.6086387516698 4355.864453112306) rotate(0 0.14347533823263348 34.85271189248692)"><path d="M0.33 0.25 C0.28 11.97, -0.26 58.66, -0.16 70.35 M-0.95 -0.66 C-1.22 10.7, -1.59 57.05, -1.34 68.57" stroke="#1e1e1e" stroke-width="2" fill="none"></path></g><g transform="translate(380.6086387516698 4355.864453112306) rotate(0 0.14347533823263348 34.85271189248692)"><path d="M-9.99 45.11 C-6.85 51.71, -3.47 60.92, -1.34 68.57 M-9.99 45.11 C-6.45 53.6, -3.52 62.85, -1.34 68.57" stroke="#1e1e1e" stroke-width="2" fill="none"></path></g><g transform="translate(380.6086387516698 4355.864453112306) rotate(0 0.14347533823263348 34.85271189248692)"><path d="M7.11 45.04 C4.88 51.71, 2.89 60.94, -1.34 68.57 M7.11 45.04 C4.49 53.69, 1.26 62.97, -1.34 68.57" stroke="#1e1e1e" stroke-width="2" fill="none"></path></g></g><mask></mask><g mask="url(#mask-MtJ-mHgLQIvmhuvcIDxOT)" stroke-linecap="round"><g transform="translate(452.2084261368243 4519.006229067694) rotate(0 114.27265455127946 62.82716297623688)"><path d="M-0.05 0.78 C37.96 21.58, 190.6 104.59, 228.69 125.56 M-1.54 0.14 C36.27 21.08, 189.62 106.27, 227.82 127.05" stroke="#1e1e1e" stroke-width="2" fill="none"></path></g><g transform="translate(452.2084261368243 4519.006229067694) rotate(0 114.27265455127946 62.82716297623688)"><path d="M203.12 123.21 C213.16 124.82, 220.42 125.83, 227.82 127.05 M203.12 123.21 C212.22 124.27, 222.13 126.92, 227.82 127.05" stroke="#1e1e1e" stroke-width="2" fill="none"></path></g><g transform="translate(452.2084261368243 4519.006229067694) rotate(0 114.27265455127946 62.82716297623688)"><path d="M211.37 108.23 C218.59 115.12, 222.94 121.42, 227.82 127.05 M211.37 108.23 C217.34 114.96, 224.1 123.32, 227.82 127.05" stroke="#1e1e1e" stroke-width="2" fill="none"></path></g></g><mask id="mask-MtJ-mHgLQIvmhuvcIDxOT"><rect x="0" y="0" fill="#fff" width="780.7537352393832" height="4744.6605550201675"></rect><rect x="548.5010925899592" y="4569.333392043931" fill="#000" width="35.95997619628906" height="25" opacity="1"></rect></mask><g transform="translate(548.5010925899592 4569.333392043932) rotate(0 17.28334797308787 13.268855831977135)"><text x="17.97998809814453" y="17.52" font-family="Virgil, Segoe UI Emoji" font-size="20px" fill="#1e1e1e" text-anchor="middle" style="white-space: pre;" direction="ltr" dominant-baseline="alphabetic">YES</text></g><g mask="url(#mask-yXSsw7hoo1Tgwff8kjit-)" stroke-linecap="round"><g transform="translate(313.5573128078652 4537.013149156738) rotate(0 -89.3537751874901 60.64474416250755)"><path d="M-0.06 0.98 C-29.85 21.1, -148.77 100.69, -178.61 120.64 M-1.55 0.44 C-31.5 20.72, -149.75 101.63, -179.5 121.83" stroke="#1e1e1e" stroke-width="2" fill="none"></path></g><g transform="translate(313.5573128078652 4537.013149156738) rotate(0 -89.3537751874901 60.64474416250755)"><path d="M-164.91 101.53 C-167.85 108.03, -175.13 113.56, -179.5 121.83 M-164.91 101.53 C-168.39 107.36, -171.31 111.71, -179.5 121.83" stroke="#1e1e1e" stroke-width="2" fill="none"></path></g><g transform="translate(313.5573128078652 4537.013149156738) rotate(0 -89.3537751874901 60.64474416250755)"><path d="M-155.27 115.66 C-161.22 117.75, -171.5 118.86, -179.5 121.83 M-155.27 115.66 C-161.16 118.07, -166.45 118.93, -179.5 121.83" stroke="#1e1e1e" stroke-width="2" fill="none"></path></g></g><mask id="mask-yXSsw7hoo1Tgwff8kjit-"><rect x="0" y="0" fill="#fff" width="592.2648631828454" height="4758.302637481753"></rect><rect x="210.50354830152742" y="4585.157893319246" fill="#000" width="27.399978637695312" height="25" opacity="1"></rect></mask><g transform="translate(210.50354830152742 4585.157893319245) rotate(0 13.27319599495263 12.99285814618679)"><text x="13.699989318847656" y="17.52" font-family="Virgil, Segoe UI Emoji" font-size="20px" fill="#1e1e1e" text-anchor="middle" style="white-space: pre;" direction="ltr" dominant-baseline="alphabetic">NO</text></g><g stroke-linecap="round" transform="translate(560.4761427749993 4650.871874555086) rotate(0 166.25 42.5)"><path d="M21.25 0 C124.25 -0.83, 229.84 -0.16, 311.25 0 M21.25 0 C107.7 0.79, 195.22 0.71, 311.25 0 M311.25 0 C326.13 0.81, 332.26 5.96, 332.5 21.25 M311.25 0 C325.44 -0.03, 330.31 6.62, 332.5 21.25 M332.5 21.25 C331.11 33.54, 332.57 42.87, 332.5 63.75 M332.5 21.25 C333.07 37.28, 331.92 52.7, 332.5 63.75 M332.5 63.75 C334.25 78.21, 323.76 86.04, 311.25 85 M332.5 63.75 C331.96 78.89, 326.91 85.76, 311.25 85 M311.25 85 C225.26 85.82, 141.04 87.01, 21.25 85 M311.25 85 C242.21 82.44, 175.25 83.7, 21.25 85 M21.25 85 C5.24 84.7, 0.59 77.68, 0 63.75 M21.25 85 C6.95 83.04, -0.74 78.83, 0 63.75 M0 63.75 C-0.04 51.01, 0.28 38.65, 0 21.25 M0 63.75 C-0.15 48.76, -0.32 33.63, 0 21.25 M0 21.25 C-0.8 5.52, 7.07 -1.68, 21.25 0 M0 21.25 C0.12 6.15, 7.2 0.15, 21.25 0" stroke="#e03131" stroke-width="2" fill="none"></path></g><g transform="translate(604.796249281347 4680.871874555086) rotate(0 121.92989349365234 12.5)"><text x="121.92989349365234" y="17.52" font-family="Virgil, Segoe UI Emoji" font-size="20px" fill="#e03131" text-anchor="middle" style="white-space: pre;" direction="ltr" dominant-baseline="alphabetic">Rerturm error on console</text></g><g stroke-linecap="round" transform="translate(10 4664.662040873054) rotate(0 166.25 30.5)"><path d="M15.25 0 C128.5 0.61, 242.19 -0.04, 317.25 0 M15.25 0 C132.41 1.95, 249.22 2.48, 317.25 0 M317.25 0 C326.92 -0.85, 331.86 4.29, 332.5 15.25 M317.25 0 C328.3 -1.02, 333.16 3.77, 332.5 15.25 M332.5 15.25 C333.6 20.82, 332.14 28.23, 332.5 45.75 M332.5 15.25 C331.68 22.77, 332.36 30.45, 332.5 45.75 M332.5 45.75 C332.44 55.29, 325.87 59.36, 317.25 61 M332.5 45.75 C332.58 57.32, 325.16 60.08, 317.25 61 M317.25 61 C228.91 57.75, 143.64 57.87, 15.25 61 M317.25 61 C206.13 63.68, 95.79 62.74, 15.25 61 M15.25 61 C6.08 61.26, -0.78 54.46, 0 45.75 M15.25 61 C4.88 61.23, 1.72 55.56, 0 45.75 M0 45.75 C1.38 40.7, 0.58 33.31, 0 15.25 M0 45.75 C-0.92 35.87, -0.05 26.03, 0 15.25 M0 15.25 C-0.01 5.03, 3.38 -1.07, 15.25 0 M0 15.25 C1.9 6.97, 6.56 -0.4, 15.25 0" stroke="#1971c2" stroke-width="2" fill="none"></path></g><g transform="translate(148.26002502441406 4682.662040873054) rotate(0 27.989974975585938 12.5)"><text x="27.989974975585938" y="17.52" font-family="Virgil, Segoe UI Emoji" font-size="20px" fill="#1971c2" text-anchor="middle" style="white-space: pre;" direction="ltr" dominant-baseline="alphabetic">STOP</text></g><g stroke-linecap="round" transform="translate(1423.426628466787 811.6379185373671) rotate(0 166.25 30.5)"><path d="M15.25 0 C129.19 2.89, 243.79 1.17, 317.25 0 M15.25 0 C76.26 -1.93, 137.41 -2.2, 317.25 0 M317.25 0 C327.37 -1.51, 332.8 7.04, 332.5 15.25 M317.25 0 C329.56 0.91, 330.92 4.3, 332.5 15.25 M332.5 15.25 C333.98 25.21, 331.49 32.09, 332.5 45.75 M332.5 15.25 C333.02 25.72, 331.92 36.46, 332.5 45.75 M332.5 45.75 C330.62 57.14, 327.26 62.21, 317.25 61 M332.5 45.75 C331.97 55.01, 328.54 60.31, 317.25 61 M317.25 61 C255.2 58.75, 191 59.2, 15.25 61 M317.25 61 C202.17 60.69, 88.35 61.07, 15.25 61 M15.25 61 C3.17 61.63, 1.14 56.45, 0 45.75 M15.25 61 C4.83 60.37, 0.68 57.49, 0 45.75 M0 45.75 C-1 35.25, 0.33 23.51, 0 15.25 M0 45.75 C-0.21 36.13, -0.53 26.05, 0 15.25 M0 15.25 C0.97 3.43, 4.1 -1.74, 15.25 0 M0 15.25 C0.88 7.23, 3.61 -1.23, 15.25 0" stroke="#1e1e1e" stroke-width="2" fill="none"></path></g><g transform="translate(1506.7067187988182 829.6379185373671) rotate(0 82.96990966796875 12.5)"><text x="82.96990966796875" y="17.52" font-family="Virgil, Segoe UI Emoji" font-size="20px" fill="#1e1e1e" text-anchor="middle" style="white-space: pre;" direction="ltr" dominant-baseline="alphabetic">OrdersRepository</text></g><g stroke-linecap="round"><g transform="translate(1588.4068589297115 1011.1718479315542) rotate(0 0.05178654475521682 34.812992389236854)"><path d="M-0.4 -1.16 C-0.58 10.54, -0.03 58.81, -0.04 70.54 M1.59 0.84 C1.15 12.19, -0.54 57.32, -1.07 68.9" stroke="#1e1e1e" stroke-width="2" fill="none"></path></g><g transform="translate(1588.4068589297115 1011.1718479315542) rotate(0 0.05178654475521682 34.812992389236854)"><path d="M-8.65 45.07 C-7.6 54.01, -1.23 62.42, -1.07 68.9 M-8.65 45.07 C-6.85 50.7, -4.67 58.76, -1.07 68.9" stroke="#1e1e1e" stroke-width="2" fill="none"></path></g><g transform="translate(1588.4068589297115 1011.1718479315542) rotate(0 0.05178654475521682 34.812992389236854)"><path d="M8.44 45.77 C2.91 54.39, 2.71 62.52, -1.07 68.9 M8.44 45.77 C5.7 51.09, 3.35 58.97, -1.07 68.9" stroke="#1e1e1e" stroke-width="2" fill="none"></path></g></g><mask></mask><g stroke-linecap="round" transform="translate(1494.367879338535 1083.3697352962176) rotate(0 95.625 85)"><path d="M120 21.5 C133.7 32.02, 144.1 42.84, 167.25 64.5 M120 21.5 C130.89 32.62, 142.43 41.83, 167.25 64.5 M167.25 64.5 C189.87 85.32, 190.88 85.72, 167.25 107.5 M167.25 64.5 C189.62 87.76, 192.83 84.89, 167.25 107.5 M167.25 107.5 C152.82 120.25, 141.07 129.64, 120 148.5 M167.25 107.5 C149.52 123.38, 132.1 137.36, 120 148.5 M120 148.5 C96.98 169.4, 94.16 169.66, 72 148.5 M120 148.5 C94.77 171.19, 94.31 169, 72 148.5 M72 148.5 C58.81 136.07, 47.78 127.21, 24 107.5 M72 148.5 C54.25 132.93, 34.85 116.4, 24 107.5 M24 107.5 C0.59 87.37, 1.61 87.82, 24 64.5 M24 107.5 C2.19 85.17, 1.27 86.69, 24 64.5 M24 64.5 C39.56 49.16, 57.94 33.52, 72 21.5 M24 64.5 C38.31 50.58, 54.2 38.93, 72 21.5 M72 21.5 C94.72 -1.07, 96.01 -1.46, 120 21.5 M72 21.5 C98.26 -1.66, 97.93 1.18, 120 21.5" stroke="#1e1e1e" stroke-width="2" fill="none"></path></g><g transform="translate(1560.5003942921483 1143.3697352962176) rotate(0 29.67998504638672 25)"><text x="29.67998504638672" y="17.52" font-family="Virgil, Segoe UI Emoji" font-size="20px" fill="#1e1e1e" text-anchor="middle" style="white-space: pre;" direction="ltr" dominant-baseline="alphabetic">Any </text><text x="29.67998504638672" y="42.519999999999996" font-family="Virgil, Segoe UI Emoji" font-size="20px" fill="#1e1e1e" text-anchor="middle" style="white-space: pre;" direction="ltr" dominant-baseline="alphabetic">data </text></g><g mask="url(#mask-pxnBSVXJa0oLFPaRYqAPS)" stroke-linecap="round"><g transform="translate(1669.1959228266298 1195.9666669195112) rotate(0 174.71716096180506 668.7984616082281)"><path d="M-0.99 -0.87 C113.24 162.6, 740.46 757.15, 684.76 980.42 C629.06 1203.69, -165.35 1279.16, -335.18 1338.77 M0.7 1.29 C114.81 164.92, 739.89 758.86, 683.8 981.48 C627.71 1204.11, -165.71 1277.99, -335.85 1337.04" stroke="#1e1e1e" stroke-width="2" fill="none"></path></g><g transform="translate(1669.1959228266298 1195.9666669195112) rotate(0 174.71716096180506 668.7984616082281)"><path d="M-314.66 1323.77 C-321.45 1326.87, -326.81 1330.53, -335.85 1337.04 M-314.66 1323.77 C-323.65 1328.79, -331.57 1334.27, -335.85 1337.04" stroke="#1e1e1e" stroke-width="2" fill="none"></path></g><g transform="translate(1669.1959228266298 1195.9666669195112) rotate(0 174.71716096180506 668.7984616082281)"><path d="M-311.09 1340.5 C-318.71 1339.38, -324.97 1338.86, -335.85 1337.04 M-311.09 1340.5 C-321.66 1338.88, -331 1337.71, -335.85 1337.04" stroke="#1e1e1e" stroke-width="2" fill="none"></path></g></g><mask id="mask-pxnBSVXJa0oLFPaRYqAPS"><rect x="0" y="0" fill="#fff" width="2789.344406864632" height="2633.5635901359674"></rect><rect x="2336.0073377092917" y="2164.7931146517967" fill="#000" width="35.95997619628906" height="25" opacity="1"></rect></mask><g transform="translate(2336.0073377092917 2164.7931146517967) rotate(0 -490.60964907041614 -299.8765050339439)"><text x="17.97998809814453" y="17.52" font-family="Virgil, Segoe UI Emoji" font-size="20px" fill="#1e1e1e" text-anchor="middle" style="white-space: pre;" direction="ltr" dominant-baseline="alphabetic">YES</text></g><g mask="url(#mask-7ob052aG4XOb59C3-Xu7x)" stroke-linecap="round"><g transform="translate(1517.0566528292043 1189.8754889077895) rotate(0 -7.857476983340845 64.63804478203713)"><path d="M0.18 1.17 C-2.25 22.95, -11.81 108.47, -14.6 129.75 M-1.19 0.74 C-3.67 22.23, -12.81 106.34, -14.96 127.88" stroke="#1e1e1e" stroke-width="2" fill="none"></path></g><g transform="translate(1517.0566528292043 1189.8754889077895) rotate(0 -7.857476983340845 64.63804478203713)"><path d="M-21.01 103.62 C-17.44 112.69, -16.8 116.67, -14.96 127.88 M-21.01 103.62 C-20.15 110.84, -17.15 116.05, -14.96 127.88" stroke="#1e1e1e" stroke-width="2" fill="none"></path></g><g transform="translate(1517.0566528292043 1189.8754889077895) rotate(0 -7.857476983340845 64.63804478203713)"><path d="M-4 105.41 C-5.48 113.97, -9.9 117.42, -14.96 127.88 M-4 105.41 C-7.66 112.13, -9.18 116.86, -14.96 127.88" stroke="#1e1e1e" stroke-width="2" fill="none"></path></g></g><mask id="mask-7ob052aG4XOb59C3-Xu7x"><rect x="0" y="0" fill="#fff" width="1632.7716067958859" height="1419.1515784718638"></rect><rect x="1495.4991865270158" y="1242.0135336898265" fill="#000" width="27.399978637695312" height="25" opacity="1"></rect></mask><g transform="translate(1495.4991865270156 1242.0135336898263) rotate(0 14.167457730630431 13.108619359722354)"><text x="13.699989318847656" y="17.52" font-family="Virgil, Segoe UI Emoji" font-size="20px" fill="#1e1e1e" text-anchor="middle" style="white-space: pre;" direction="ltr" dominant-baseline="alphabetic">NO</text></g><g stroke-linecap="round" transform="translate(1422.3895908072745 1330.711827948815) rotate(0 166.25 30.5)"><path d="M15.25 0 C133.48 1.25, 252.5 0.48, 317.25 0 M15.25 0 C128.77 1.34, 241.97 0.62, 317.25 0 M317.25 0 C328.95 0.4, 331.82 6.39, 332.5 15.25 M317.25 0 C325.25 1.4, 332.32 6.48, 332.5 15.25 M332.5 15.25 C331.78 21.86, 332.04 31.09, 332.5 45.75 M332.5 15.25 C331.85 26.77, 332 36.44, 332.5 45.75 M332.5 45.75 C330.74 56.69, 327.33 62.8, 317.25 61 M332.5 45.75 C330.3 56.64, 328.73 61.62, 317.25 61 M317.25 61 C230.99 62.82, 144.05 63.04, 15.25 61 M317.25 61 C237.94 61.85, 158.27 61.28, 15.25 61 M15.25 61 C4.97 61.59, -0.77 56.17, 0 45.75 M15.25 61 C6.2 59.09, -1.14 53.91, 0 45.75 M0 45.75 C-1.35 35.44, -1.74 27.09, 0 15.25 M0 45.75 C-0.47 39.64, 0.23 32.49, 0 15.25 M0 15.25 C-0.37 4.19, 4.39 0.46, 15.25 0 M0 15.25 C1.57 7.36, 3.12 -0.99, 15.25 0" stroke="#1e1e1e" stroke-width="2" fill="none"></path></g><g transform="translate(1505.6696811393058 1348.711827948815) rotate(0 82.96990966796875 12.5)"><text x="82.96990966796875" y="17.52" font-family="Virgil, Segoe UI Emoji" font-size="20px" fill="#1e1e1e" text-anchor="middle" style="white-space: pre;" direction="ltr" dominant-baseline="alphabetic">OrdersRepository</text></g><g stroke-linecap="round" transform="translate(1423.3363080353229 949.1718479315542) rotate(0 166.25 30.5)"><path d="M15.25 0 C134.4 -0.64, 251.03 -0.95, 317.25 0 M15.25 0 C123.32 -2.35, 232.33 -1.84, 317.25 0 M317.25 0 C326.46 0.86, 331.21 7.06, 332.5 15.25 M317.25 0 C328.17 -2.09, 330.6 4.95, 332.5 15.25 M332.5 15.25 C333.45 22, 334.2 28.95, 332.5 45.75 M332.5 15.25 C331.83 23.4, 332.26 32.96, 332.5 45.75 M332.5 45.75 C332.88 57.36, 326.5 59.46, 317.25 61 M332.5 45.75 C332.98 54.63, 325.94 62.23, 317.25 61 M317.25 61 C211.22 61.57, 105.07 62.46, 15.25 61 M317.25 61 C220.33 59.56, 122.36 59.18, 15.25 61 M15.25 61 C6.6 61.09, 0.55 54.3, 0 45.75 M15.25 61 C5.01 60.21, -1.36 56.21, 0 45.75 M0 45.75 C1.27 38.77, -1.47 29.73, 0 15.25 M0 45.75 C0.31 37.06, 0.55 30.07, 0 15.25 M0 15.25 C-1.94 6.21, 5.51 0.48, 15.25 0 M0 15.25 C-0.53 5.4, 6.61 2.29, 15.25 0" stroke="#1e1e1e" stroke-width="2" fill="none"></path></g><g transform="translate(1510.7163815826862 967.1718479315542) rotate(0 78.86992645263672 12.5)"><text x="78.86992645263672" y="17.52" font-family="Virgil, Segoe UI Emoji" font-size="20px" fill="#1e1e1e" text-anchor="middle" style="white-space: pre;" direction="ltr" dominant-baseline="alphabetic">getOrderByPage</text></g><g stroke-linecap="round"><g transform="translate(1587.6464927067375 873.6379185373671) rotate(0 -1.2170660678413014 37.266964697093556)"><path d="M-1.09 0.98 C-1.77 13.76, -3.27 63.34, -3.33 75.52 M0.54 0.46 C0.16 13.01, -0.72 61.46, -1.09 73.91" stroke="#1e1e1e" stroke-width="2" fill="none"></path></g><g transform="translate(1587.6464927067375 873.6379185373671) rotate(0 -1.2170660678413014 37.266964697093556)"><path d="M-9.09 50.22 C-4.76 57.41, -1.85 69.18, -1.09 73.91 M-9.09 50.22 C-5.86 55.65, -4.68 62.47, -1.09 73.91" stroke="#1e1e1e" stroke-width="2" fill="none"></path></g><g transform="translate(1587.6464927067375 873.6379185373671) rotate(0 -1.2170660678413014 37.266964697093556)"><path d="M8.01 50.62 C6.12 57.51, 2.81 69.13, -1.09 73.91 M8.01 50.62 C6.76 55.86, 3.47 62.57, -1.09 73.91" stroke="#1e1e1e" stroke-width="2" fill="none"></path></g></g><mask></mask><g stroke-linecap="round"><g transform="translate(1580.6354764454861 1392.305184223058) rotate(0 3.1327910564430113 37.145951097825105)"><path d="M0.7 1.1 C2.05 13.5, 6.08 62.53, 7.12 74.81 M-0.39 0.63 C0.97 12.64, 5.47 60.95, 6.61 72.97" stroke="#1e1e1e" stroke-width="2" fill="none"></path></g><g transform="translate(1580.6354764454861 1392.305184223058) rotate(0 3.1327910564430113 37.145951097825105)"><path d="M-4.11 50.38 C0.11 56.62, 1.47 61.17, 6.61 72.97 M-4.11 50.38 C-0.15 57.08, 3.63 65.7, 6.61 72.97" stroke="#1e1e1e" stroke-width="2" fill="none"></path></g><g transform="translate(1580.6354764454861 1392.305184223058) rotate(0 3.1327910564430113 37.145951097825105)"><path d="M12.92 48.77 C13.46 55.46, 11.14 60.36, 6.61 72.97 M12.92 48.77 C11.05 56.14, 8.99 65.31, 6.61 72.97" stroke="#1e1e1e" stroke-width="2" fill="none"></path></g></g><mask></mask><g stroke-linecap="round"><g transform="translate(548.6152556264449 4329.415538532677) rotate(0 92.00946536841252 0.5823383884076065)"><path d="M0.13 -0.72 C30.93 -0.79, 154.27 0.58, 184.86 0.73 M-1.26 1.51 C29.46 2.12, 153.69 2.13, 184.35 2.03" stroke="#1e1e1e" stroke-width="2" fill="none"></path></g><g transform="translate(548.6152556264449 4329.415538532677) rotate(0 92.00946536841252 0.5823383884076065)"><path d="M160.86 10.6 C166.73 9.36, 174.37 4.74, 184.35 2.03 M160.86 10.6 C166.3 8.41, 171.01 7.12, 184.35 2.03" stroke="#1e1e1e" stroke-width="2" fill="none"></path></g><g transform="translate(548.6152556264449 4329.415538532677) rotate(0 92.00946536841252 0.5823383884076065)"><path d="M160.85 -6.5 C166.89 -2.53, 174.53 -1.93, 184.35 2.03 M160.85 -6.5 C166.25 -5, 170.97 -2.6, 184.35 2.03" stroke="#1e1e1e" stroke-width="2" fill="none"></path></g></g><mask></mask><g transform="translate(768.156828056138 4295.639912005031) rotate(0 82.159912109375 12.5)"><text x="0" y="17.52" font-family="Virgil, Segoe UI Emoji" font-size="20px" fill="#1e1e1e" text-anchor="start" style="white-space: pre;" direction="ltr" dominant-baseline="alphabetic">orders-page-1.csv</text></g><g transform="translate(766.9436478447533 4335.550366961722) rotate(0 86.56990814208984 12.5)"><text x="0" y="17.52" font-family="Virgil, Segoe UI Emoji" font-size="20px" fill="#1e1e1e" text-anchor="start" style="white-space: pre;" direction="ltr" dominant-baseline="alphabetic">orders-page-2.csv</text></g><g transform="translate(977.7986478829009 4349.797382126945) rotate(0 126.77989959716797 25)"><text x="0" y="17.52" font-family="Virgil, Segoe UI Emoji" font-size="20px" fill="#1e1e1e" text-anchor="start" style="white-space: pre;" direction="ltr" dominant-baseline="alphabetic">Note that page 2 totals</text><text x="0" y="42.519999999999996" font-family="Virgil, Segoe UI Emoji" font-size="20px" fill="#1e1e1e" text-anchor="start" style="white-space: pre;" direction="ltr" dominant-baseline="alphabetic">it's the sum of 1 + 2</text></g></svg>